ISO-10303-21;
HEADER;
FILE_DESCRIPTION(('KiCad electronic assembly'),'2;1');
FILE_NAME('frodo_fancyfins.step','2025-07-23T23:02:13',('Pcbnew'),(
    'Kicad'),'Open CASCADE STEP processor 7.8','KiCad to STEP converter'
  ,'Unknown');
FILE_SCHEMA(('AUTOMOTIVE_DESIGN { 1 0 10303 214 1 1 1 1 }'));
ENDSEC;
DATA;
#1 = APPLICATION_PROTOCOL_DEFINITION('international standard',
  'automotive_design',2000,#2);
#2 = APPLICATION_CONTEXT(
  'core data for automotive mechanical design processes');
#3 = SHAPE_DEFINITION_REPRESENTATION(#4,#10);
#4 = PRODUCT_DEFINITION_SHAPE('','',#5);
#5 = PRODUCT_DEFINITION('design','',#6,#9);
#6 = PRODUCT_DEFINITION_FORMATION('','',#7);
#7 = PRODUCT('frodo_fancyfins 1','frodo_fancyfins 1','',(#8));
#8 = PRODUCT_CONTEXT('',#2,'mechanical');
#9 = PRODUCT_DEFINITION_CONTEXT('part definition',#2,'design');
#10 = SHAPE_REPRESENTATION('',(#11,#15),#19);
#11 = AXIS2_PLACEMENT_3D('',#12,#13,#14);
#12 = CARTESIAN_POINT('',(0.,0.,0.));
#13 = DIRECTION('',(0.,0.,1.));
#14 = DIRECTION('',(1.,0.,-0.));
#15 = AXIS2_PLACEMENT_3D('',#16,#17,#18);
#16 = CARTESIAN_POINT('',(0.,0.,0.));
#17 = DIRECTION('',(0.,0.,1.));
#18 = DIRECTION('',(1.,0.,-0.));
#19 = ( GEOMETRIC_REPRESENTATION_CONTEXT(3) 
GLOBAL_UNCERTAINTY_ASSIGNED_CONTEXT((#23)) GLOBAL_UNIT_ASSIGNED_CONTEXT(
(#20,#21,#22)) REPRESENTATION_CONTEXT('Context #1',
  '3D Context with UNIT and UNCERTAINTY') );
#20 = ( LENGTH_UNIT() NAMED_UNIT(*) SI_UNIT(.MILLI.,.METRE.) );
#21 = ( NAMED_UNIT(*) PLANE_ANGLE_UNIT() SI_UNIT($,.RADIAN.) );
#22 = ( NAMED_UNIT(*) SI_UNIT($,.STERADIAN.) SOLID_ANGLE_UNIT() );
#23 = UNCERTAINTY_MEASURE_WITH_UNIT(LENGTH_MEASURE(1.E-07),#20,
  'distance_accuracy_value','confusion accuracy');
#24 = PRODUCT_RELATED_PRODUCT_CATEGORY('part',$,(#7));
#25 = SHAPE_DEFINITION_REPRESENTATION(#26,#32);
#26 = PRODUCT_DEFINITION_SHAPE('','',#27);
#27 = PRODUCT_DEFINITION('design','',#28,#31);
#28 = PRODUCT_DEFINITION_FORMATION('','',#29);
#29 = PRODUCT('frodo_fancyfins_PCB','frodo_fancyfins_PCB','',(#30));
#30 = PRODUCT_CONTEXT('',#2,'mechanical');
#31 = PRODUCT_DEFINITION_CONTEXT('part definition',#2,'design');
#32 = ADVANCED_BREP_SHAPE_REPRESENTATION('',(#11,#33),#1991);
#33 = MANIFOLD_SOLID_BREP('',#34);
#34 = CLOSED_SHELL('',(#35,#75,#106,#139,#617,#1095,#1112,#1129,#1146,
    #1163,#1180,#1197,#1214,#1231,#1248,#1265,#1282,#1299,#1316,#1333,
    #1350,#1367,#1384,#1401,#1418,#1435,#1452,#1469,#1486,#1503,#1520,
    #1537,#1554,#1571,#1588,#1605,#1622,#1639,#1656,#1673,#1690,#1707,
    #1724,#1741,#1758,#1775,#1792,#1809,#1821,#1838,#1855,#1872,#1889,
    #1906,#1923,#1940,#1957,#1974));
#35 = ADVANCED_FACE('',(#36),#70,.T.);
#36 = FACE_BOUND('',#37,.T.);
#37 = EDGE_LOOP('',(#38,#48,#56,#64));
#38 = ORIENTED_EDGE('',*,*,#39,.T.);
#39 = EDGE_CURVE('',#40,#42,#44,.T.);
#40 = VERTEX_POINT('',#41);
#41 = CARTESIAN_POINT('',(72.138,-57.5,0.));
#42 = VERTEX_POINT('',#43);
#43 = CARTESIAN_POINT('',(72.138,-57.5,1.51));
#44 = LINE('',#45,#46);
#45 = CARTESIAN_POINT('',(72.138,-57.5,0.));
#46 = VECTOR('',#47,1.);
#47 = DIRECTION('',(0.,0.,1.));
#48 = ORIENTED_EDGE('',*,*,#49,.T.);
#49 = EDGE_CURVE('',#42,#50,#52,.T.);
#50 = VERTEX_POINT('',#51);
#51 = CARTESIAN_POINT('',(54.137,-57.5,1.51));
#52 = LINE('',#53,#54);
#53 = CARTESIAN_POINT('',(72.138,-57.5,1.51));
#54 = VECTOR('',#55,1.);
#55 = DIRECTION('',(-1.,0.,0.));
#56 = ORIENTED_EDGE('',*,*,#57,.F.);
#57 = EDGE_CURVE('',#58,#50,#60,.T.);
#58 = VERTEX_POINT('',#59);
#59 = CARTESIAN_POINT('',(54.137,-57.5,0.));
#60 = LINE('',#61,#62);
#61 = CARTESIAN_POINT('',(54.137,-57.5,0.));
#62 = VECTOR('',#63,1.);
#63 = DIRECTION('',(0.,0.,1.));
#64 = ORIENTED_EDGE('',*,*,#65,.F.);
#65 = EDGE_CURVE('',#40,#58,#66,.T.);
#66 = LINE('',#67,#68);
#67 = CARTESIAN_POINT('',(72.138,-57.5,0.));
#68 = VECTOR('',#69,1.);
#69 = DIRECTION('',(-1.,0.,0.));
#70 = PLANE('',#71);
#71 = AXIS2_PLACEMENT_3D('',#72,#73,#74);
#72 = CARTESIAN_POINT('',(72.138,-57.5,0.));
#73 = DIRECTION('',(0.,-1.,0.));
#74 = DIRECTION('',(-1.,0.,0.));
#75 = ADVANCED_FACE('',(#76),#101,.T.);
#76 = FACE_BOUND('',#77,.T.);
#77 = EDGE_LOOP('',(#78,#88,#94,#95));
#78 = ORIENTED_EDGE('',*,*,#79,.T.);
#79 = EDGE_CURVE('',#80,#82,#84,.T.);
#80 = VERTEX_POINT('',#81);
#81 = CARTESIAN_POINT('',(72.137,57.5,0.));
#82 = VERTEX_POINT('',#83);
#83 = CARTESIAN_POINT('',(72.137,57.5,1.51));
#84 = LINE('',#85,#86);
#85 = CARTESIAN_POINT('',(72.137,57.5,0.));
#86 = VECTOR('',#87,1.);
#87 = DIRECTION('',(0.,0.,1.));
#88 = ORIENTED_EDGE('',*,*,#89,.T.);
#89 = EDGE_CURVE('',#82,#42,#90,.T.);
#90 = LINE('',#91,#92);
#91 = CARTESIAN_POINT('',(72.137,57.5,1.51));
#92 = VECTOR('',#93,1.);
#93 = DIRECTION('',(8.695652173626E-06,-0.999999999962,0.));
#94 = ORIENTED_EDGE('',*,*,#39,.F.);
#95 = ORIENTED_EDGE('',*,*,#96,.F.);
#96 = EDGE_CURVE('',#80,#40,#97,.T.);
#97 = LINE('',#98,#99);
#98 = CARTESIAN_POINT('',(72.137,57.5,0.));
#99 = VECTOR('',#100,1.);
#100 = DIRECTION('',(8.695652173626E-06,-0.999999999962,0.));
#101 = PLANE('',#102);
#102 = AXIS2_PLACEMENT_3D('',#103,#104,#105);
#103 = CARTESIAN_POINT('',(72.137,57.5,0.));
#104 = DIRECTION('',(0.999999999962,8.695652173626E-06,-0.));
#105 = DIRECTION('',(8.695652173626E-06,-0.999999999962,0.));
#106 = ADVANCED_FACE('',(#107),#134,.T.);
#107 = FACE_BOUND('',#108,.T.);
#108 = EDGE_LOOP('',(#109,#110,#119,#127));
#109 = ORIENTED_EDGE('',*,*,#57,.T.);
#110 = ORIENTED_EDGE('',*,*,#111,.T.);
#111 = EDGE_CURVE('',#50,#112,#114,.T.);
#112 = VERTEX_POINT('',#113);
#113 = CARTESIAN_POINT('',(52.137,-55.5,1.51));
#114 = CIRCLE('',#115,1.99999850585);
#115 = AXIS2_PLACEMENT_3D('',#116,#117,#118);
#116 = CARTESIAN_POINT('',(54.13699850585,-55.50000149415,1.51));
#117 = DIRECTION('',(0.,0.,-1.));
#118 = DIRECTION('',(7.470757420593E-07,-1.,0.));
#119 = ORIENTED_EDGE('',*,*,#120,.F.);
#120 = EDGE_CURVE('',#121,#112,#123,.T.);
#121 = VERTEX_POINT('',#122);
#122 = CARTESIAN_POINT('',(52.137,-55.5,0.));
#123 = LINE('',#124,#125);
#124 = CARTESIAN_POINT('',(52.137,-55.5,0.));
#125 = VECTOR('',#126,1.);
#126 = DIRECTION('',(0.,0.,1.));
#127 = ORIENTED_EDGE('',*,*,#128,.F.);
#128 = EDGE_CURVE('',#58,#121,#129,.T.);
#129 = CIRCLE('',#130,1.99999850585);
#130 = AXIS2_PLACEMENT_3D('',#131,#132,#133);
#131 = CARTESIAN_POINT('',(54.13699850585,-55.50000149415,0.));
#132 = DIRECTION('',(0.,0.,-1.));
#133 = DIRECTION('',(7.470757420593E-07,-1.,0.));
#134 = CYLINDRICAL_SURFACE('',#135,1.99999850585);
#135 = AXIS2_PLACEMENT_3D('',#136,#137,#138);
#136 = CARTESIAN_POINT('',(54.13699850585,-55.50000149415,0.));
#137 = DIRECTION('',(0.,0.,-1.));
#138 = DIRECTION('',(7.470757420593E-07,-1.,0.));
#139 = ADVANCED_FACE('',(#140,#502,#513,#524,#535,#546,#557,#568,#579,
    #590,#601),#612,.F.);
#140 = FACE_BOUND('',#141,.F.);
#141 = EDGE_LOOP('',(#142,#143,#144,#152,#161,#169,#177,#186,#194,#202,
    #210,#218,#226,#235,#243,#251,#260,#268,#277,#285,#294,#302,#311,
    #319,#327,#336,#344,#352,#360,#368,#376,#385,#393,#401,#410,#418,
    #427,#435,#444,#452,#461,#469,#478,#486,#495,#501));
#142 = ORIENTED_EDGE('',*,*,#65,.F.);
#143 = ORIENTED_EDGE('',*,*,#96,.F.);
#144 = ORIENTED_EDGE('',*,*,#145,.F.);
#145 = EDGE_CURVE('',#146,#80,#148,.T.);
#146 = VERTEX_POINT('',#147);
#147 = CARTESIAN_POINT('',(54.137,57.5,0.));
#148 = LINE('',#149,#150);
#149 = CARTESIAN_POINT('',(54.137,57.5,0.));
#150 = VECTOR('',#151,1.);
#151 = DIRECTION('',(1.,0.,0.));
#152 = ORIENTED_EDGE('',*,*,#153,.F.);
#153 = EDGE_CURVE('',#154,#146,#156,.T.);
#154 = VERTEX_POINT('',#155);
#155 = CARTESIAN_POINT('',(52.137,55.5,0.));
#156 = CIRCLE('',#157,1.99999850585);
#157 = AXIS2_PLACEMENT_3D('',#158,#159,#160);
#158 = CARTESIAN_POINT('',(54.13699850585,55.50000149415,0.));
#159 = DIRECTION('',(0.,0.,-1.));
#160 = DIRECTION('',(-1.,-7.470757420593E-07,-0.));
#161 = ORIENTED_EDGE('',*,*,#162,.F.);
#162 = EDGE_CURVE('',#163,#154,#165,.T.);
#163 = VERTEX_POINT('',#164);
#164 = CARTESIAN_POINT('',(52.137,32.15,0.));
#165 = LINE('',#166,#167);
#166 = CARTESIAN_POINT('',(52.137,32.15,0.));
#167 = VECTOR('',#168,1.);
#168 = DIRECTION('',(0.,1.,0.));
#169 = ORIENTED_EDGE('',*,*,#170,.F.);
#170 = EDGE_CURVE('',#171,#163,#173,.T.);
#171 = VERTEX_POINT('',#172);
#172 = CARTESIAN_POINT('',(52.137,31.45,0.));
#173 = LINE('',#174,#175);
#174 = CARTESIAN_POINT('',(52.137,31.45,0.));
#175 = VECTOR('',#176,1.);
#176 = DIRECTION('',(0.,1.,0.));
#177 = ORIENTED_EDGE('',*,*,#178,.F.);
#178 = EDGE_CURVE('',#179,#171,#181,.T.);
#179 = VERTEX_POINT('',#180);
#180 = CARTESIAN_POINT('',(51.837,31.15,0.));
#181 = CIRCLE('',#182,0.300000117299);
#182 = AXIS2_PLACEMENT_3D('',#183,#184,#185);
#183 = CARTESIAN_POINT('',(51.836999882701,31.450000117299,0.));
#184 = DIRECTION('',(0.,0.,1.));
#185 = DIRECTION('',(3.909953616065E-07,-1.,0.));
#186 = ORIENTED_EDGE('',*,*,#187,.F.);
#187 = EDGE_CURVE('',#188,#179,#190,.T.);
#188 = VERTEX_POINT('',#189);
#189 = CARTESIAN_POINT('',(48.137,31.15,0.));
#190 = LINE('',#191,#192);
#191 = CARTESIAN_POINT('',(48.137,31.15,0.));
#192 = VECTOR('',#193,1.);
#193 = DIRECTION('',(1.,0.,0.));
#194 = ORIENTED_EDGE('',*,*,#195,.F.);
#195 = EDGE_CURVE('',#196,#188,#198,.T.);
#196 = VERTEX_POINT('',#197);
#197 = CARTESIAN_POINT('',(47.837,30.85,0.));
#198 = LINE('',#199,#200);
#199 = CARTESIAN_POINT('',(47.837,30.85,0.));
#200 = VECTOR('',#201,1.);
#201 = DIRECTION('',(0.707106781187,0.707106781187,0.));
#202 = ORIENTED_EDGE('',*,*,#203,.F.);
#203 = EDGE_CURVE('',#204,#196,#206,.T.);
#204 = VERTEX_POINT('',#205);
#205 = CARTESIAN_POINT('',(47.837,27.125,0.));
#206 = LINE('',#207,#208);
#207 = CARTESIAN_POINT('',(47.837,27.125,0.));
#208 = VECTOR('',#209,1.);
#209 = DIRECTION('',(0.,1.,0.));
#210 = ORIENTED_EDGE('',*,*,#211,.F.);
#211 = EDGE_CURVE('',#212,#204,#214,.T.);
#212 = VERTEX_POINT('',#213);
#213 = CARTESIAN_POINT('',(48.137,26.85,0.));
#214 = LINE('',#215,#216);
#215 = CARTESIAN_POINT('',(48.137,26.85,0.));
#216 = VECTOR('',#217,1.);
#217 = DIRECTION('',(-0.737154140201,0.675724628517,0.));
#218 = ORIENTED_EDGE('',*,*,#219,.F.);
#219 = EDGE_CURVE('',#220,#212,#222,.T.);
#220 = VERTEX_POINT('',#221);
#221 = CARTESIAN_POINT('',(51.837,26.85,0.));
#222 = LINE('',#223,#224);
#223 = CARTESIAN_POINT('',(51.837,26.85,0.));
#224 = VECTOR('',#225,1.);
#225 = DIRECTION('',(-1.,0.,0.));
#226 = ORIENTED_EDGE('',*,*,#227,.F.);
#227 = EDGE_CURVE('',#228,#220,#230,.T.);
#228 = VERTEX_POINT('',#229);
#229 = CARTESIAN_POINT('',(52.137,26.55,0.));
#230 = CIRCLE('',#231,0.300000117299);
#231 = AXIS2_PLACEMENT_3D('',#232,#233,#234);
#232 = CARTESIAN_POINT('',(51.836999882701,26.549999882701,0.));
#233 = DIRECTION('',(0.,0.,1.));
#234 = DIRECTION('',(1.,3.909953616065E-07,-0.));
#235 = ORIENTED_EDGE('',*,*,#236,.F.);
#236 = EDGE_CURVE('',#237,#228,#239,.T.);
#237 = VERTEX_POINT('',#238);
#238 = CARTESIAN_POINT('',(52.137,25.85,0.));
#239 = LINE('',#240,#241);
#240 = CARTESIAN_POINT('',(52.137,25.85,0.));
#241 = VECTOR('',#242,1.);
#242 = DIRECTION('',(0.,1.,0.));
#243 = ORIENTED_EDGE('',*,*,#244,.F.);
#244 = EDGE_CURVE('',#245,#237,#247,.T.);
#245 = VERTEX_POINT('',#246);
#246 = CARTESIAN_POINT('',(52.137,19.5,0.));
#247 = LINE('',#248,#249);
#248 = CARTESIAN_POINT('',(52.137,19.5,0.));
#249 = VECTOR('',#250,1.);
#250 = DIRECTION('',(0.,1.,0.));
#251 = ORIENTED_EDGE('',*,*,#252,.F.);
#252 = EDGE_CURVE('',#253,#245,#255,.T.);
#253 = VERTEX_POINT('',#254);
#254 = CARTESIAN_POINT('',(51.137,18.5,0.));
#255 = CIRCLE('',#256,0.999999252925);
#256 = AXIS2_PLACEMENT_3D('',#257,#258,#259);
#257 = CARTESIAN_POINT('',(51.137000747075,19.499999252925,0.));
#258 = DIRECTION('',(0.,0.,1.));
#259 = DIRECTION('',(-7.470757491648E-07,-1.,0.));
#260 = ORIENTED_EDGE('',*,*,#261,.F.);
#261 = EDGE_CURVE('',#262,#253,#264,.T.);
#262 = VERTEX_POINT('',#263);
#263 = CARTESIAN_POINT('',(-55.863,18.5,0.));
#264 = LINE('',#265,#266);
#265 = CARTESIAN_POINT('',(-55.863,18.5,0.));
#266 = VECTOR('',#267,1.);
#267 = DIRECTION('',(1.,0.,0.));
#268 = ORIENTED_EDGE('',*,*,#269,.F.);
#269 = EDGE_CURVE('',#270,#262,#272,.T.);
#270 = VERTEX_POINT('',#271);
#271 = CARTESIAN_POINT('',(-57.863,16.5,0.));
#272 = CIRCLE('',#273,1.99999850585);
#273 = AXIS2_PLACEMENT_3D('',#274,#275,#276);
#274 = CARTESIAN_POINT('',(-55.86300149415,16.50000149415,0.));
#275 = DIRECTION('',(0.,0.,-1.));
#276 = DIRECTION('',(-1.,-7.470757438357E-07,-0.));
#277 = ORIENTED_EDGE('',*,*,#278,.F.);
#278 = EDGE_CURVE('',#279,#270,#281,.T.);
#279 = VERTEX_POINT('',#280);
#280 = CARTESIAN_POINT('',(-57.863,11.5,0.));
#281 = LINE('',#282,#283);
#282 = CARTESIAN_POINT('',(-57.863,11.5,0.));
#283 = VECTOR('',#284,1.);
#284 = DIRECTION('',(0.,1.,0.));
#285 = ORIENTED_EDGE('',*,*,#286,.F.);
#286 = EDGE_CURVE('',#287,#279,#289,.T.);
#287 = VERTEX_POINT('',#288);
#288 = CARTESIAN_POINT('',(-59.863,9.5,0.));
#289 = CIRCLE('',#290,1.99999850585);
#290 = AXIS2_PLACEMENT_3D('',#291,#292,#293);
#291 = CARTESIAN_POINT('',(-59.86299850585,11.49999850585,0.));
#292 = DIRECTION('',(0.,0.,1.));
#293 = DIRECTION('',(-7.470757420593E-07,-1.,0.));
#294 = ORIENTED_EDGE('',*,*,#295,.F.);
#295 = EDGE_CURVE('',#296,#287,#298,.T.);
#296 = VERTEX_POINT('',#297);
#297 = CARTESIAN_POINT('',(-66.863,9.5,0.));
#298 = LINE('',#299,#300);
#299 = CARTESIAN_POINT('',(-66.863,9.5,0.));
#300 = VECTOR('',#301,1.);
#301 = DIRECTION('',(1.,0.,0.));
#302 = ORIENTED_EDGE('',*,*,#303,.F.);
#303 = EDGE_CURVE('',#304,#296,#306,.T.);
#304 = VERTEX_POINT('',#305);
#305 = CARTESIAN_POINT('',(-67.863,8.5,0.));
#306 = CIRCLE('',#307,0.999999252925);
#307 = AXIS2_PLACEMENT_3D('',#308,#309,#310);
#308 = CARTESIAN_POINT('',(-66.86300074707,8.500000747075,0.));
#309 = DIRECTION('',(0.,0.,-1.));
#310 = DIRECTION('',(-1.,-7.470757314012E-07,-0.));
#311 = ORIENTED_EDGE('',*,*,#312,.F.);
#312 = EDGE_CURVE('',#313,#304,#315,.T.);
#313 = VERTEX_POINT('',#314);
#314 = CARTESIAN_POINT('',(-67.863,6.8,0.));
#315 = LINE('',#316,#317);
#316 = CARTESIAN_POINT('',(-67.863,6.8,0.));
#317 = VECTOR('',#318,1.);
#318 = DIRECTION('',(0.,1.,0.));
#319 = ORIENTED_EDGE('',*,*,#320,.F.);
#320 = EDGE_CURVE('',#321,#313,#323,.T.);
#321 = VERTEX_POINT('',#322);
#322 = CARTESIAN_POINT('',(-67.863,6.1,0.));
#323 = LINE('',#324,#325);
#324 = CARTESIAN_POINT('',(-67.863,6.1,0.));
#325 = VECTOR('',#326,1.);
#326 = DIRECTION('',(0.,1.,0.));
#327 = ORIENTED_EDGE('',*,*,#328,.F.);
#328 = EDGE_CURVE('',#329,#321,#331,.T.);
#329 = VERTEX_POINT('',#330);
#330 = CARTESIAN_POINT('',(-68.163,5.8,0.));
#331 = CIRCLE('',#332,0.300000117299);
#332 = AXIS2_PLACEMENT_3D('',#333,#334,#335);
#333 = CARTESIAN_POINT('',(-68.16300011729,6.100000117299,0.));
#334 = DIRECTION('',(0.,0.,1.));
#335 = DIRECTION('',(3.909953616065E-07,-1.,0.));
#336 = ORIENTED_EDGE('',*,*,#337,.F.);
#337 = EDGE_CURVE('',#338,#329,#340,.T.);
#338 = VERTEX_POINT('',#339);
#339 = CARTESIAN_POINT('',(-71.863,5.8,0.));
#340 = LINE('',#341,#342);
#341 = CARTESIAN_POINT('',(-71.863,5.8,0.));
#342 = VECTOR('',#343,1.);
#343 = DIRECTION('',(1.,0.,0.));
#344 = ORIENTED_EDGE('',*,*,#345,.F.);
#345 = EDGE_CURVE('',#346,#338,#348,.T.);
#346 = VERTEX_POINT('',#347);
#347 = CARTESIAN_POINT('',(-72.163,5.525,0.));
#348 = LINE('',#349,#350);
#349 = CARTESIAN_POINT('',(-72.163,5.525,0.));
#350 = VECTOR('',#351,1.);
#351 = DIRECTION('',(0.737154140201,0.675724628517,0.));
#352 = ORIENTED_EDGE('',*,*,#353,.F.);
#353 = EDGE_CURVE('',#354,#346,#356,.T.);
#354 = VERTEX_POINT('',#355);
#355 = CARTESIAN_POINT('',(-72.163,1.8,0.));
#356 = LINE('',#357,#358);
#357 = CARTESIAN_POINT('',(-72.163,1.8,0.));
#358 = VECTOR('',#359,1.);
#359 = DIRECTION('',(0.,1.,0.));
#360 = ORIENTED_EDGE('',*,*,#361,.F.);
#361 = EDGE_CURVE('',#362,#354,#364,.T.);
#362 = VERTEX_POINT('',#363);
#363 = CARTESIAN_POINT('',(-71.863,1.5,0.));
#364 = LINE('',#365,#366);
#365 = CARTESIAN_POINT('',(-71.863,1.5,0.));
#366 = VECTOR('',#367,1.);
#367 = DIRECTION('',(-0.707106781187,0.707106781187,0.));
#368 = ORIENTED_EDGE('',*,*,#369,.F.);
#369 = EDGE_CURVE('',#370,#362,#372,.T.);
#370 = VERTEX_POINT('',#371);
#371 = CARTESIAN_POINT('',(-68.163,1.5,0.));
#372 = LINE('',#373,#374);
#373 = CARTESIAN_POINT('',(-68.163,1.5,0.));
#374 = VECTOR('',#375,1.);
#375 = DIRECTION('',(-1.,0.,0.));
#376 = ORIENTED_EDGE('',*,*,#377,.F.);
#377 = EDGE_CURVE('',#378,#370,#380,.T.);
#378 = VERTEX_POINT('',#379);
#379 = CARTESIAN_POINT('',(-67.863,1.2,0.));
#380 = CIRCLE('',#381,0.300000117299);
#381 = AXIS2_PLACEMENT_3D('',#382,#383,#384);
#382 = CARTESIAN_POINT('',(-68.16300011729,1.199999882701,0.));
#383 = DIRECTION('',(0.,0.,1.));
#384 = DIRECTION('',(1.,3.909953519845E-07,-0.));
#385 = ORIENTED_EDGE('',*,*,#386,.F.);
#386 = EDGE_CURVE('',#387,#378,#389,.T.);
#387 = VERTEX_POINT('',#388);
#388 = CARTESIAN_POINT('',(-67.863,0.5,0.));
#389 = LINE('',#390,#391);
#390 = CARTESIAN_POINT('',(-67.863,0.5,0.));
#391 = VECTOR('',#392,1.);
#392 = DIRECTION('',(0.,1.,0.));
#393 = ORIENTED_EDGE('',*,*,#394,.F.);
#394 = EDGE_CURVE('',#395,#387,#397,.T.);
#395 = VERTEX_POINT('',#396);
#396 = CARTESIAN_POINT('',(-67.863,-1.5,0.));
#397 = LINE('',#398,#399);
#398 = CARTESIAN_POINT('',(-67.863,-1.5,0.));
#399 = VECTOR('',#400,1.);
#400 = DIRECTION('',(0.,1.,0.));
#401 = ORIENTED_EDGE('',*,*,#402,.F.);
#402 = EDGE_CURVE('',#403,#395,#405,.T.);
#403 = VERTEX_POINT('',#404);
#404 = CARTESIAN_POINT('',(-66.863,-2.5,0.));
#405 = CIRCLE('',#406,0.999999252925);
#406 = AXIS2_PLACEMENT_3D('',#407,#408,#409);
#407 = CARTESIAN_POINT('',(-66.86300074707,-1.500000747075,0.));
#408 = DIRECTION('',(0.,0.,-1.));
#409 = DIRECTION('',(7.470757349539E-07,-1.,0.));
#410 = ORIENTED_EDGE('',*,*,#411,.F.);
#411 = EDGE_CURVE('',#412,#403,#414,.T.);
#412 = VERTEX_POINT('',#413);
#413 = CARTESIAN_POINT('',(-59.863,-2.5,0.));
#414 = LINE('',#415,#416);
#415 = CARTESIAN_POINT('',(-59.863,-2.5,0.));
#416 = VECTOR('',#417,1.);
#417 = DIRECTION('',(-1.,0.,0.));
#418 = ORIENTED_EDGE('',*,*,#419,.F.);
#419 = EDGE_CURVE('',#420,#412,#422,.T.);
#420 = VERTEX_POINT('',#421);
#421 = CARTESIAN_POINT('',(-57.863,-4.5,0.));
#422 = CIRCLE('',#423,1.99999850585);
#423 = AXIS2_PLACEMENT_3D('',#424,#425,#426);
#424 = CARTESIAN_POINT('',(-59.86299850585,-4.49999850585,0.));
#425 = DIRECTION('',(0.,0.,1.));
#426 = DIRECTION('',(1.,-7.470757425034E-07,0.));
#427 = ORIENTED_EDGE('',*,*,#428,.F.);
#428 = EDGE_CURVE('',#429,#420,#431,.T.);
#429 = VERTEX_POINT('',#430);
#430 = CARTESIAN_POINT('',(-57.863,-9.5,0.));
#431 = LINE('',#432,#433);
#432 = CARTESIAN_POINT('',(-57.863,-9.5,0.));
#433 = VECTOR('',#434,1.);
#434 = DIRECTION('',(0.,1.,0.));
#435 = ORIENTED_EDGE('',*,*,#436,.F.);
#436 = EDGE_CURVE('',#437,#429,#439,.T.);
#437 = VERTEX_POINT('',#438);
#438 = CARTESIAN_POINT('',(-55.863,-11.5,0.));
#439 = CIRCLE('',#440,1.99999850585);
#440 = AXIS2_PLACEMENT_3D('',#441,#442,#443);
#441 = CARTESIAN_POINT('',(-55.86300149415,-9.50000149415,0.));
#442 = DIRECTION('',(0.,0.,-1.));
#443 = DIRECTION('',(7.470757420593E-07,-1.,0.));
#444 = ORIENTED_EDGE('',*,*,#445,.F.);
#445 = EDGE_CURVE('',#446,#437,#448,.T.);
#446 = VERTEX_POINT('',#447);
#447 = CARTESIAN_POINT('',(20.137,-11.5,0.));
#448 = LINE('',#449,#450);
#449 = CARTESIAN_POINT('',(20.137,-11.5,0.));
#450 = VECTOR('',#451,1.);
#451 = DIRECTION('',(-1.,0.,0.));
#452 = ORIENTED_EDGE('',*,*,#453,.F.);
#453 = EDGE_CURVE('',#454,#446,#456,.T.);
#454 = VERTEX_POINT('',#455);
#455 = CARTESIAN_POINT('',(22.137,-13.5,0.));
#456 = CIRCLE('',#457,1.99999850585);
#457 = AXIS2_PLACEMENT_3D('',#458,#459,#460);
#458 = CARTESIAN_POINT('',(20.13700149415,-13.49999850585,0.));
#459 = DIRECTION('',(0.,0.,1.));
#460 = DIRECTION('',(1.,-7.470757420593E-07,0.));
#461 = ORIENTED_EDGE('',*,*,#462,.F.);
#462 = EDGE_CURVE('',#463,#454,#465,.T.);
#463 = VERTEX_POINT('',#464);
#464 = CARTESIAN_POINT('',(22.137,-19.5,0.));
#465 = LINE('',#466,#467);
#466 = CARTESIAN_POINT('',(22.137,-19.5,0.));
#467 = VECTOR('',#468,1.);
#468 = DIRECTION('',(0.,1.,0.));
#469 = ORIENTED_EDGE('',*,*,#470,.F.);
#470 = EDGE_CURVE('',#471,#463,#473,.T.);
#471 = VERTEX_POINT('',#472);
#472 = CARTESIAN_POINT('',(24.137,-21.5,0.));
#473 = CIRCLE('',#474,1.99999850585);
#474 = AXIS2_PLACEMENT_3D('',#475,#476,#477);
#475 = CARTESIAN_POINT('',(24.13699850585,-19.50000149415,0.));
#476 = DIRECTION('',(0.,0.,-1.));
#477 = DIRECTION('',(7.470757438357E-07,-1.,0.));
#478 = ORIENTED_EDGE('',*,*,#479,.F.);
#479 = EDGE_CURVE('',#480,#471,#482,.T.);
#480 = VERTEX_POINT('',#481);
#481 = CARTESIAN_POINT('',(50.137,-21.5,0.));
#482 = LINE('',#483,#484);
#483 = CARTESIAN_POINT('',(50.137,-21.5,0.));
#484 = VECTOR('',#485,1.);
#485 = DIRECTION('',(-1.,0.,0.));
#486 = ORIENTED_EDGE('',*,*,#487,.F.);
#487 = EDGE_CURVE('',#488,#480,#490,.T.);
#488 = VERTEX_POINT('',#489);
#489 = CARTESIAN_POINT('',(52.137,-23.5,0.));
#490 = CIRCLE('',#491,1.99999850585);
#491 = AXIS2_PLACEMENT_3D('',#492,#493,#494);
#492 = CARTESIAN_POINT('',(50.13700149415,-23.49999850585,0.));
#493 = DIRECTION('',(0.,0.,1.));
#494 = DIRECTION('',(1.,-7.470757438357E-07,0.));
#495 = ORIENTED_EDGE('',*,*,#496,.F.);
#496 = EDGE_CURVE('',#121,#488,#497,.T.);
#497 = LINE('',#498,#499);
#498 = CARTESIAN_POINT('',(52.137,-55.5,0.));
#499 = VECTOR('',#500,1.);
#500 = DIRECTION('',(0.,1.,0.));
#501 = ORIENTED_EDGE('',*,*,#128,.F.);
#502 = FACE_BOUND('',#503,.F.);
#503 = EDGE_LOOP('',(#504));
#504 = ORIENTED_EDGE('',*,*,#505,.T.);
#505 = EDGE_CURVE('',#506,#506,#508,.T.);
#506 = VERTEX_POINT('',#507);
#507 = CARTESIAN_POINT('',(51.802,-1.71245,0.));
#508 = CIRCLE('',#509,1.18745);
#509 = AXIS2_PLACEMENT_3D('',#510,#511,#512);
#510 = CARTESIAN_POINT('',(51.802,-0.525,0.));
#511 = DIRECTION('',(-0.,0.,-1.));
#512 = DIRECTION('',(-0.,-1.,0.));
#513 = FACE_BOUND('',#514,.F.);
#514 = EDGE_LOOP('',(#515));
#515 = ORIENTED_EDGE('',*,*,#516,.T.);
#516 = EDGE_CURVE('',#517,#517,#519,.T.);
#517 = VERTEX_POINT('',#518);
#518 = CARTESIAN_POINT('',(57.517,-1.71245,0.));
#519 = CIRCLE('',#520,1.18745);
#520 = AXIS2_PLACEMENT_3D('',#521,#522,#523);
#521 = CARTESIAN_POINT('',(57.517,-0.525,0.));
#522 = DIRECTION('',(-0.,0.,-1.));
#523 = DIRECTION('',(5.983769723021E-15,-1.,-0.));
#524 = FACE_BOUND('',#525,.F.);
#525 = EDGE_LOOP('',(#526));
#526 = ORIENTED_EDGE('',*,*,#527,.F.);
#527 = EDGE_CURVE('',#528,#528,#530,.T.);
#528 = VERTEX_POINT('',#529);
#529 = CARTESIAN_POINT('',(69.137,-33.,0.));
#530 = CIRCLE('',#531,1.);
#531 = AXIS2_PLACEMENT_3D('',#532,#533,#534);
#532 = CARTESIAN_POINT('',(68.137,-33.,0.));
#533 = DIRECTION('',(0.,0.,1.));
#534 = DIRECTION('',(1.,0.,-0.));
#535 = FACE_BOUND('',#536,.F.);
#536 = EDGE_LOOP('',(#537));
#537 = ORIENTED_EDGE('',*,*,#538,.T.);
#538 = EDGE_CURVE('',#539,#539,#541,.T.);
#539 = VERTEX_POINT('',#540);
#540 = CARTESIAN_POINT('',(49.897,0.5037,0.));
#541 = CIRCLE('',#542,0.4953);
#542 = AXIS2_PLACEMENT_3D('',#543,#544,#545);
#543 = CARTESIAN_POINT('',(49.897,0.999,0.));
#544 = DIRECTION('',(-0.,0.,-1.));
#545 = DIRECTION('',(-0.,-1.,0.));
#546 = FACE_BOUND('',#547,.F.);
#547 = EDGE_LOOP('',(#548));
#548 = ORIENTED_EDGE('',*,*,#549,.T.);
#549 = EDGE_CURVE('',#550,#550,#552,.T.);
#550 = VERTEX_POINT('',#551);
#551 = CARTESIAN_POINT('',(49.897,2.5357,0.));
#552 = CIRCLE('',#553,0.4953);
#553 = AXIS2_PLACEMENT_3D('',#554,#555,#556);
#554 = CARTESIAN_POINT('',(49.897,3.031,0.));
#555 = DIRECTION('',(-0.,0.,-1.));
#556 = DIRECTION('',(-0.,-1.,0.));
#557 = FACE_BOUND('',#558,.F.);
#558 = EDGE_LOOP('',(#559));
#559 = ORIENTED_EDGE('',*,*,#560,.T.);
#560 = EDGE_CURVE('',#561,#561,#563,.T.);
#561 = VERTEX_POINT('',#562);
#562 = CARTESIAN_POINT('',(51.802,3.36755,0.));
#563 = CIRCLE('',#564,1.18745);
#564 = AXIS2_PLACEMENT_3D('',#565,#566,#567);
#565 = CARTESIAN_POINT('',(51.802,4.555,0.));
#566 = DIRECTION('',(-0.,0.,-1.));
#567 = DIRECTION('',(-0.,-1.,0.));
#568 = FACE_BOUND('',#569,.F.);
#569 = EDGE_LOOP('',(#570));
#570 = ORIENTED_EDGE('',*,*,#571,.T.);
#571 = EDGE_CURVE('',#572,#572,#574,.T.);
#572 = VERTEX_POINT('',#573);
#573 = CARTESIAN_POINT('',(57.517,1.5197,0.));
#574 = CIRCLE('',#575,0.4953);
#575 = AXIS2_PLACEMENT_3D('',#576,#577,#578);
#576 = CARTESIAN_POINT('',(57.517,2.015,0.));
#577 = DIRECTION('',(-0.,0.,-1.));
#578 = DIRECTION('',(-0.,-1.,0.));
#579 = FACE_BOUND('',#580,.F.);
#580 = EDGE_LOOP('',(#581));
#581 = ORIENTED_EDGE('',*,*,#582,.T.);
#582 = EDGE_CURVE('',#583,#583,#585,.T.);
#583 = VERTEX_POINT('',#584);
#584 = CARTESIAN_POINT('',(57.517,3.36755,0.));
#585 = CIRCLE('',#586,1.18745);
#586 = AXIS2_PLACEMENT_3D('',#587,#588,#589);
#587 = CARTESIAN_POINT('',(57.517,4.555,0.));
#588 = DIRECTION('',(-0.,0.,-1.));
#589 = DIRECTION('',(5.983769723021E-15,-1.,-0.));
#590 = FACE_BOUND('',#591,.F.);
#591 = EDGE_LOOP('',(#592));
#592 = ORIENTED_EDGE('',*,*,#593,.F.);
#593 = EDGE_CURVE('',#594,#594,#596,.T.);
#594 = VERTEX_POINT('',#595);
#595 = CARTESIAN_POINT('',(69.137,0.,0.));
#596 = CIRCLE('',#597,1.);
#597 = AXIS2_PLACEMENT_3D('',#598,#599,#600);
#598 = CARTESIAN_POINT('',(68.137,-0.,0.));
#599 = DIRECTION('',(0.,0.,1.));
#600 = DIRECTION('',(1.,0.,-0.));
#601 = FACE_BOUND('',#602,.F.);
#602 = EDGE_LOOP('',(#603));
#603 = ORIENTED_EDGE('',*,*,#604,.F.);
#604 = EDGE_CURVE('',#605,#605,#607,.T.);
#605 = VERTEX_POINT('',#606);
#606 = CARTESIAN_POINT('',(69.137,33.,0.));
#607 = CIRCLE('',#608,1.);
#608 = AXIS2_PLACEMENT_3D('',#609,#610,#611);
#609 = CARTESIAN_POINT('',(68.137,33.,0.));
#610 = DIRECTION('',(0.,0.,1.));
#611 = DIRECTION('',(1.,0.,-0.));
#612 = PLANE('',#613);
#613 = AXIS2_PLACEMENT_3D('',#614,#615,#616);
#614 = CARTESIAN_POINT('',(0.,0.,0.));
#615 = DIRECTION('',(0.,0.,1.));
#616 = DIRECTION('',(1.,0.,-0.));
#617 = ADVANCED_FACE('',(#618,#980,#991,#1002,#1013,#1024,#1035,#1046,
    #1057,#1068,#1079),#1090,.T.);
#618 = FACE_BOUND('',#619,.T.);
#619 = EDGE_LOOP('',(#620,#621,#622,#630,#639,#647,#655,#664,#672,#680,
    #688,#696,#704,#713,#721,#729,#738,#746,#755,#763,#772,#780,#789,
    #797,#805,#814,#822,#830,#838,#846,#854,#863,#871,#879,#888,#896,
    #905,#913,#922,#930,#939,#947,#956,#964,#973,#979));
#620 = ORIENTED_EDGE('',*,*,#49,.F.);
#621 = ORIENTED_EDGE('',*,*,#89,.F.);
#622 = ORIENTED_EDGE('',*,*,#623,.F.);
#623 = EDGE_CURVE('',#624,#82,#626,.T.);
#624 = VERTEX_POINT('',#625);
#625 = CARTESIAN_POINT('',(54.137,57.5,1.51));
#626 = LINE('',#627,#628);
#627 = CARTESIAN_POINT('',(54.137,57.5,1.51));
#628 = VECTOR('',#629,1.);
#629 = DIRECTION('',(1.,0.,0.));
#630 = ORIENTED_EDGE('',*,*,#631,.F.);
#631 = EDGE_CURVE('',#632,#624,#634,.T.);
#632 = VERTEX_POINT('',#633);
#633 = CARTESIAN_POINT('',(52.137,55.5,1.51));
#634 = CIRCLE('',#635,1.99999850585);
#635 = AXIS2_PLACEMENT_3D('',#636,#637,#638);
#636 = CARTESIAN_POINT('',(54.13699850585,55.50000149415,1.51));
#637 = DIRECTION('',(0.,0.,-1.));
#638 = DIRECTION('',(-1.,-7.470757420593E-07,-0.));
#639 = ORIENTED_EDGE('',*,*,#640,.F.);
#640 = EDGE_CURVE('',#641,#632,#643,.T.);
#641 = VERTEX_POINT('',#642);
#642 = CARTESIAN_POINT('',(52.137,32.15,1.51));
#643 = LINE('',#644,#645);
#644 = CARTESIAN_POINT('',(52.137,32.15,1.51));
#645 = VECTOR('',#646,1.);
#646 = DIRECTION('',(0.,1.,0.));
#647 = ORIENTED_EDGE('',*,*,#648,.F.);
#648 = EDGE_CURVE('',#649,#641,#651,.T.);
#649 = VERTEX_POINT('',#650);
#650 = CARTESIAN_POINT('',(52.137,31.45,1.51));
#651 = LINE('',#652,#653);
#652 = CARTESIAN_POINT('',(52.137,31.45,1.51));
#653 = VECTOR('',#654,1.);
#654 = DIRECTION('',(0.,1.,0.));
#655 = ORIENTED_EDGE('',*,*,#656,.F.);
#656 = EDGE_CURVE('',#657,#649,#659,.T.);
#657 = VERTEX_POINT('',#658);
#658 = CARTESIAN_POINT('',(51.837,31.15,1.51));
#659 = CIRCLE('',#660,0.300000117299);
#660 = AXIS2_PLACEMENT_3D('',#661,#662,#663);
#661 = CARTESIAN_POINT('',(51.836999882701,31.450000117299,1.51));
#662 = DIRECTION('',(0.,0.,1.));
#663 = DIRECTION('',(3.909953616065E-07,-1.,0.));
#664 = ORIENTED_EDGE('',*,*,#665,.F.);
#665 = EDGE_CURVE('',#666,#657,#668,.T.);
#666 = VERTEX_POINT('',#667);
#667 = CARTESIAN_POINT('',(48.137,31.15,1.51));
#668 = LINE('',#669,#670);
#669 = CARTESIAN_POINT('',(48.137,31.15,1.51));
#670 = VECTOR('',#671,1.);
#671 = DIRECTION('',(1.,0.,0.));
#672 = ORIENTED_EDGE('',*,*,#673,.F.);
#673 = EDGE_CURVE('',#674,#666,#676,.T.);
#674 = VERTEX_POINT('',#675);
#675 = CARTESIAN_POINT('',(47.837,30.85,1.51));
#676 = LINE('',#677,#678);
#677 = CARTESIAN_POINT('',(47.837,30.85,1.51));
#678 = VECTOR('',#679,1.);
#679 = DIRECTION('',(0.707106781187,0.707106781187,0.));
#680 = ORIENTED_EDGE('',*,*,#681,.F.);
#681 = EDGE_CURVE('',#682,#674,#684,.T.);
#682 = VERTEX_POINT('',#683);
#683 = CARTESIAN_POINT('',(47.837,27.125,1.51));
#684 = LINE('',#685,#686);
#685 = CARTESIAN_POINT('',(47.837,27.125,1.51));
#686 = VECTOR('',#687,1.);
#687 = DIRECTION('',(0.,1.,0.));
#688 = ORIENTED_EDGE('',*,*,#689,.F.);
#689 = EDGE_CURVE('',#690,#682,#692,.T.);
#690 = VERTEX_POINT('',#691);
#691 = CARTESIAN_POINT('',(48.137,26.85,1.51));
#692 = LINE('',#693,#694);
#693 = CARTESIAN_POINT('',(48.137,26.85,1.51));
#694 = VECTOR('',#695,1.);
#695 = DIRECTION('',(-0.737154140201,0.675724628517,0.));
#696 = ORIENTED_EDGE('',*,*,#697,.F.);
#697 = EDGE_CURVE('',#698,#690,#700,.T.);
#698 = VERTEX_POINT('',#699);
#699 = CARTESIAN_POINT('',(51.837,26.85,1.51));
#700 = LINE('',#701,#702);
#701 = CARTESIAN_POINT('',(51.837,26.85,1.51));
#702 = VECTOR('',#703,1.);
#703 = DIRECTION('',(-1.,0.,0.));
#704 = ORIENTED_EDGE('',*,*,#705,.F.);
#705 = EDGE_CURVE('',#706,#698,#708,.T.);
#706 = VERTEX_POINT('',#707);
#707 = CARTESIAN_POINT('',(52.137,26.55,1.51));
#708 = CIRCLE('',#709,0.300000117299);
#709 = AXIS2_PLACEMENT_3D('',#710,#711,#712);
#710 = CARTESIAN_POINT('',(51.836999882701,26.549999882701,1.51));
#711 = DIRECTION('',(0.,0.,1.));
#712 = DIRECTION('',(1.,3.909953616065E-07,-0.));
#713 = ORIENTED_EDGE('',*,*,#714,.F.);
#714 = EDGE_CURVE('',#715,#706,#717,.T.);
#715 = VERTEX_POINT('',#716);
#716 = CARTESIAN_POINT('',(52.137,25.85,1.51));
#717 = LINE('',#718,#719);
#718 = CARTESIAN_POINT('',(52.137,25.85,1.51));
#719 = VECTOR('',#720,1.);
#720 = DIRECTION('',(0.,1.,0.));
#721 = ORIENTED_EDGE('',*,*,#722,.F.);
#722 = EDGE_CURVE('',#723,#715,#725,.T.);
#723 = VERTEX_POINT('',#724);
#724 = CARTESIAN_POINT('',(52.137,19.5,1.51));
#725 = LINE('',#726,#727);
#726 = CARTESIAN_POINT('',(52.137,19.5,1.51));
#727 = VECTOR('',#728,1.);
#728 = DIRECTION('',(0.,1.,0.));
#729 = ORIENTED_EDGE('',*,*,#730,.F.);
#730 = EDGE_CURVE('',#731,#723,#733,.T.);
#731 = VERTEX_POINT('',#732);
#732 = CARTESIAN_POINT('',(51.137,18.5,1.51));
#733 = CIRCLE('',#734,0.999999252925);
#734 = AXIS2_PLACEMENT_3D('',#735,#736,#737);
#735 = CARTESIAN_POINT('',(51.137000747075,19.499999252925,1.51));
#736 = DIRECTION('',(0.,0.,1.));
#737 = DIRECTION('',(-7.470757491648E-07,-1.,0.));
#738 = ORIENTED_EDGE('',*,*,#739,.F.);
#739 = EDGE_CURVE('',#740,#731,#742,.T.);
#740 = VERTEX_POINT('',#741);
#741 = CARTESIAN_POINT('',(-55.863,18.5,1.51));
#742 = LINE('',#743,#744);
#743 = CARTESIAN_POINT('',(-55.863,18.5,1.51));
#744 = VECTOR('',#745,1.);
#745 = DIRECTION('',(1.,0.,0.));
#746 = ORIENTED_EDGE('',*,*,#747,.F.);
#747 = EDGE_CURVE('',#748,#740,#750,.T.);
#748 = VERTEX_POINT('',#749);
#749 = CARTESIAN_POINT('',(-57.863,16.5,1.51));
#750 = CIRCLE('',#751,1.99999850585);
#751 = AXIS2_PLACEMENT_3D('',#752,#753,#754);
#752 = CARTESIAN_POINT('',(-55.86300149415,16.50000149415,1.51));
#753 = DIRECTION('',(0.,0.,-1.));
#754 = DIRECTION('',(-1.,-7.470757438357E-07,-0.));
#755 = ORIENTED_EDGE('',*,*,#756,.F.);
#756 = EDGE_CURVE('',#757,#748,#759,.T.);
#757 = VERTEX_POINT('',#758);
#758 = CARTESIAN_POINT('',(-57.863,11.5,1.51));
#759 = LINE('',#760,#761);
#760 = CARTESIAN_POINT('',(-57.863,11.5,1.51));
#761 = VECTOR('',#762,1.);
#762 = DIRECTION('',(0.,1.,0.));
#763 = ORIENTED_EDGE('',*,*,#764,.F.);
#764 = EDGE_CURVE('',#765,#757,#767,.T.);
#765 = VERTEX_POINT('',#766);
#766 = CARTESIAN_POINT('',(-59.863,9.5,1.51));
#767 = CIRCLE('',#768,1.99999850585);
#768 = AXIS2_PLACEMENT_3D('',#769,#770,#771);
#769 = CARTESIAN_POINT('',(-59.86299850585,11.49999850585,1.51));
#770 = DIRECTION('',(0.,0.,1.));
#771 = DIRECTION('',(-7.470757420593E-07,-1.,0.));
#772 = ORIENTED_EDGE('',*,*,#773,.F.);
#773 = EDGE_CURVE('',#774,#765,#776,.T.);
#774 = VERTEX_POINT('',#775);
#775 = CARTESIAN_POINT('',(-66.863,9.5,1.51));
#776 = LINE('',#777,#778);
#777 = CARTESIAN_POINT('',(-66.863,9.5,1.51));
#778 = VECTOR('',#779,1.);
#779 = DIRECTION('',(1.,0.,0.));
#780 = ORIENTED_EDGE('',*,*,#781,.F.);
#781 = EDGE_CURVE('',#782,#774,#784,.T.);
#782 = VERTEX_POINT('',#783);
#783 = CARTESIAN_POINT('',(-67.863,8.5,1.51));
#784 = CIRCLE('',#785,0.999999252925);
#785 = AXIS2_PLACEMENT_3D('',#786,#787,#788);
#786 = CARTESIAN_POINT('',(-66.86300074707,8.500000747075,1.51));
#787 = DIRECTION('',(0.,0.,-1.));
#788 = DIRECTION('',(-1.,-7.470757314012E-07,-0.));
#789 = ORIENTED_EDGE('',*,*,#790,.F.);
#790 = EDGE_CURVE('',#791,#782,#793,.T.);
#791 = VERTEX_POINT('',#792);
#792 = CARTESIAN_POINT('',(-67.863,6.8,1.51));
#793 = LINE('',#794,#795);
#794 = CARTESIAN_POINT('',(-67.863,6.8,1.51));
#795 = VECTOR('',#796,1.);
#796 = DIRECTION('',(0.,1.,0.));
#797 = ORIENTED_EDGE('',*,*,#798,.F.);
#798 = EDGE_CURVE('',#799,#791,#801,.T.);
#799 = VERTEX_POINT('',#800);
#800 = CARTESIAN_POINT('',(-67.863,6.1,1.51));
#801 = LINE('',#802,#803);
#802 = CARTESIAN_POINT('',(-67.863,6.1,1.51));
#803 = VECTOR('',#804,1.);
#804 = DIRECTION('',(0.,1.,0.));
#805 = ORIENTED_EDGE('',*,*,#806,.F.);
#806 = EDGE_CURVE('',#807,#799,#809,.T.);
#807 = VERTEX_POINT('',#808);
#808 = CARTESIAN_POINT('',(-68.163,5.8,1.51));
#809 = CIRCLE('',#810,0.300000117299);
#810 = AXIS2_PLACEMENT_3D('',#811,#812,#813);
#811 = CARTESIAN_POINT('',(-68.16300011729,6.100000117299,1.51));
#812 = DIRECTION('',(0.,0.,1.));
#813 = DIRECTION('',(3.909953616065E-07,-1.,0.));
#814 = ORIENTED_EDGE('',*,*,#815,.F.);
#815 = EDGE_CURVE('',#816,#807,#818,.T.);
#816 = VERTEX_POINT('',#817);
#817 = CARTESIAN_POINT('',(-71.863,5.8,1.51));
#818 = LINE('',#819,#820);
#819 = CARTESIAN_POINT('',(-71.863,5.8,1.51));
#820 = VECTOR('',#821,1.);
#821 = DIRECTION('',(1.,0.,0.));
#822 = ORIENTED_EDGE('',*,*,#823,.F.);
#823 = EDGE_CURVE('',#824,#816,#826,.T.);
#824 = VERTEX_POINT('',#825);
#825 = CARTESIAN_POINT('',(-72.163,5.525,1.51));
#826 = LINE('',#827,#828);
#827 = CARTESIAN_POINT('',(-72.163,5.525,1.51));
#828 = VECTOR('',#829,1.);
#829 = DIRECTION('',(0.737154140201,0.675724628517,0.));
#830 = ORIENTED_EDGE('',*,*,#831,.F.);
#831 = EDGE_CURVE('',#832,#824,#834,.T.);
#832 = VERTEX_POINT('',#833);
#833 = CARTESIAN_POINT('',(-72.163,1.8,1.51));
#834 = LINE('',#835,#836);
#835 = CARTESIAN_POINT('',(-72.163,1.8,1.51));
#836 = VECTOR('',#837,1.);
#837 = DIRECTION('',(0.,1.,0.));
#838 = ORIENTED_EDGE('',*,*,#839,.F.);
#839 = EDGE_CURVE('',#840,#832,#842,.T.);
#840 = VERTEX_POINT('',#841);
#841 = CARTESIAN_POINT('',(-71.863,1.5,1.51));
#842 = LINE('',#843,#844);
#843 = CARTESIAN_POINT('',(-71.863,1.5,1.51));
#844 = VECTOR('',#845,1.);
#845 = DIRECTION('',(-0.707106781187,0.707106781187,0.));
#846 = ORIENTED_EDGE('',*,*,#847,.F.);
#847 = EDGE_CURVE('',#848,#840,#850,.T.);
#848 = VERTEX_POINT('',#849);
#849 = CARTESIAN_POINT('',(-68.163,1.5,1.51));
#850 = LINE('',#851,#852);
#851 = CARTESIAN_POINT('',(-68.163,1.5,1.51));
#852 = VECTOR('',#853,1.);
#853 = DIRECTION('',(-1.,0.,0.));
#854 = ORIENTED_EDGE('',*,*,#855,.F.);
#855 = EDGE_CURVE('',#856,#848,#858,.T.);
#856 = VERTEX_POINT('',#857);
#857 = CARTESIAN_POINT('',(-67.863,1.2,1.51));
#858 = CIRCLE('',#859,0.300000117299);
#859 = AXIS2_PLACEMENT_3D('',#860,#861,#862);
#860 = CARTESIAN_POINT('',(-68.16300011729,1.199999882701,1.51));
#861 = DIRECTION('',(0.,0.,1.));
#862 = DIRECTION('',(1.,3.909953519845E-07,-0.));
#863 = ORIENTED_EDGE('',*,*,#864,.F.);
#864 = EDGE_CURVE('',#865,#856,#867,.T.);
#865 = VERTEX_POINT('',#866);
#866 = CARTESIAN_POINT('',(-67.863,0.5,1.51));
#867 = LINE('',#868,#869);
#868 = CARTESIAN_POINT('',(-67.863,0.5,1.51));
#869 = VECTOR('',#870,1.);
#870 = DIRECTION('',(0.,1.,0.));
#871 = ORIENTED_EDGE('',*,*,#872,.F.);
#872 = EDGE_CURVE('',#873,#865,#875,.T.);
#873 = VERTEX_POINT('',#874);
#874 = CARTESIAN_POINT('',(-67.863,-1.5,1.51));
#875 = LINE('',#876,#877);
#876 = CARTESIAN_POINT('',(-67.863,-1.5,1.51));
#877 = VECTOR('',#878,1.);
#878 = DIRECTION('',(0.,1.,0.));
#879 = ORIENTED_EDGE('',*,*,#880,.F.);
#880 = EDGE_CURVE('',#881,#873,#883,.T.);
#881 = VERTEX_POINT('',#882);
#882 = CARTESIAN_POINT('',(-66.863,-2.5,1.51));
#883 = CIRCLE('',#884,0.999999252925);
#884 = AXIS2_PLACEMENT_3D('',#885,#886,#887);
#885 = CARTESIAN_POINT('',(-66.86300074707,-1.500000747075,1.51));
#886 = DIRECTION('',(0.,0.,-1.));
#887 = DIRECTION('',(7.470757349539E-07,-1.,0.));
#888 = ORIENTED_EDGE('',*,*,#889,.F.);
#889 = EDGE_CURVE('',#890,#881,#892,.T.);
#890 = VERTEX_POINT('',#891);
#891 = CARTESIAN_POINT('',(-59.863,-2.5,1.51));
#892 = LINE('',#893,#894);
#893 = CARTESIAN_POINT('',(-59.863,-2.5,1.51));
#894 = VECTOR('',#895,1.);
#895 = DIRECTION('',(-1.,0.,0.));
#896 = ORIENTED_EDGE('',*,*,#897,.F.);
#897 = EDGE_CURVE('',#898,#890,#900,.T.);
#898 = VERTEX_POINT('',#899);
#899 = CARTESIAN_POINT('',(-57.863,-4.5,1.51));
#900 = CIRCLE('',#901,1.99999850585);
#901 = AXIS2_PLACEMENT_3D('',#902,#903,#904);
#902 = CARTESIAN_POINT('',(-59.86299850585,-4.49999850585,1.51));
#903 = DIRECTION('',(0.,0.,1.));
#904 = DIRECTION('',(1.,-7.470757425034E-07,0.));
#905 = ORIENTED_EDGE('',*,*,#906,.F.);
#906 = EDGE_CURVE('',#907,#898,#909,.T.);
#907 = VERTEX_POINT('',#908);
#908 = CARTESIAN_POINT('',(-57.863,-9.5,1.51));
#909 = LINE('',#910,#911);
#910 = CARTESIAN_POINT('',(-57.863,-9.5,1.51));
#911 = VECTOR('',#912,1.);
#912 = DIRECTION('',(0.,1.,0.));
#913 = ORIENTED_EDGE('',*,*,#914,.F.);
#914 = EDGE_CURVE('',#915,#907,#917,.T.);
#915 = VERTEX_POINT('',#916);
#916 = CARTESIAN_POINT('',(-55.863,-11.5,1.51));
#917 = CIRCLE('',#918,1.99999850585);
#918 = AXIS2_PLACEMENT_3D('',#919,#920,#921);
#919 = CARTESIAN_POINT('',(-55.86300149415,-9.50000149415,1.51));
#920 = DIRECTION('',(0.,0.,-1.));
#921 = DIRECTION('',(7.470757420593E-07,-1.,0.));
#922 = ORIENTED_EDGE('',*,*,#923,.F.);
#923 = EDGE_CURVE('',#924,#915,#926,.T.);
#924 = VERTEX_POINT('',#925);
#925 = CARTESIAN_POINT('',(20.137,-11.5,1.51));
#926 = LINE('',#927,#928);
#927 = CARTESIAN_POINT('',(20.137,-11.5,1.51));
#928 = VECTOR('',#929,1.);
#929 = DIRECTION('',(-1.,0.,0.));
#930 = ORIENTED_EDGE('',*,*,#931,.F.);
#931 = EDGE_CURVE('',#932,#924,#934,.T.);
#932 = VERTEX_POINT('',#933);
#933 = CARTESIAN_POINT('',(22.137,-13.5,1.51));
#934 = CIRCLE('',#935,1.99999850585);
#935 = AXIS2_PLACEMENT_3D('',#936,#937,#938);
#936 = CARTESIAN_POINT('',(20.13700149415,-13.49999850585,1.51));
#937 = DIRECTION('',(0.,0.,1.));
#938 = DIRECTION('',(1.,-7.470757420593E-07,0.));
#939 = ORIENTED_EDGE('',*,*,#940,.F.);
#940 = EDGE_CURVE('',#941,#932,#943,.T.);
#941 = VERTEX_POINT('',#942);
#942 = CARTESIAN_POINT('',(22.137,-19.5,1.51));
#943 = LINE('',#944,#945);
#944 = CARTESIAN_POINT('',(22.137,-19.5,1.51));
#945 = VECTOR('',#946,1.);
#946 = DIRECTION('',(0.,1.,0.));
#947 = ORIENTED_EDGE('',*,*,#948,.F.);
#948 = EDGE_CURVE('',#949,#941,#951,.T.);
#949 = VERTEX_POINT('',#950);
#950 = CARTESIAN_POINT('',(24.137,-21.5,1.51));
#951 = CIRCLE('',#952,1.99999850585);
#952 = AXIS2_PLACEMENT_3D('',#953,#954,#955);
#953 = CARTESIAN_POINT('',(24.13699850585,-19.50000149415,1.51));
#954 = DIRECTION('',(0.,0.,-1.));
#955 = DIRECTION('',(7.470757438357E-07,-1.,0.));
#956 = ORIENTED_EDGE('',*,*,#957,.F.);
#957 = EDGE_CURVE('',#958,#949,#960,.T.);
#958 = VERTEX_POINT('',#959);
#959 = CARTESIAN_POINT('',(50.137,-21.5,1.51));
#960 = LINE('',#961,#962);
#961 = CARTESIAN_POINT('',(50.137,-21.5,1.51));
#962 = VECTOR('',#963,1.);
#963 = DIRECTION('',(-1.,0.,0.));
#964 = ORIENTED_EDGE('',*,*,#965,.F.);
#965 = EDGE_CURVE('',#966,#958,#968,.T.);
#966 = VERTEX_POINT('',#967);
#967 = CARTESIAN_POINT('',(52.137,-23.5,1.51));
#968 = CIRCLE('',#969,1.99999850585);
#969 = AXIS2_PLACEMENT_3D('',#970,#971,#972);
#970 = CARTESIAN_POINT('',(50.13700149415,-23.49999850585,1.51));
#971 = DIRECTION('',(0.,0.,1.));
#972 = DIRECTION('',(1.,-7.470757438357E-07,0.));
#973 = ORIENTED_EDGE('',*,*,#974,.F.);
#974 = EDGE_CURVE('',#112,#966,#975,.T.);
#975 = LINE('',#976,#977);
#976 = CARTESIAN_POINT('',(52.137,-55.5,1.51));
#977 = VECTOR('',#978,1.);
#978 = DIRECTION('',(0.,1.,0.));
#979 = ORIENTED_EDGE('',*,*,#111,.F.);
#980 = FACE_BOUND('',#981,.T.);
#981 = EDGE_LOOP('',(#982));
#982 = ORIENTED_EDGE('',*,*,#983,.T.);
#983 = EDGE_CURVE('',#984,#984,#986,.T.);
#984 = VERTEX_POINT('',#985);
#985 = CARTESIAN_POINT('',(51.802,-1.71245,1.51));
#986 = CIRCLE('',#987,1.18745);
#987 = AXIS2_PLACEMENT_3D('',#988,#989,#990);
#988 = CARTESIAN_POINT('',(51.802,-0.525,1.51));
#989 = DIRECTION('',(-0.,0.,-1.));
#990 = DIRECTION('',(-0.,-1.,0.));
#991 = FACE_BOUND('',#992,.T.);
#992 = EDGE_LOOP('',(#993));
#993 = ORIENTED_EDGE('',*,*,#994,.T.);
#994 = EDGE_CURVE('',#995,#995,#997,.T.);
#995 = VERTEX_POINT('',#996);
#996 = CARTESIAN_POINT('',(57.517,-1.71245,1.51));
#997 = CIRCLE('',#998,1.18745);
#998 = AXIS2_PLACEMENT_3D('',#999,#1000,#1001);
#999 = CARTESIAN_POINT('',(57.517,-0.525,1.51));
#1000 = DIRECTION('',(-0.,0.,-1.));
#1001 = DIRECTION('',(5.983769723021E-15,-1.,-0.));
#1002 = FACE_BOUND('',#1003,.T.);
#1003 = EDGE_LOOP('',(#1004));
#1004 = ORIENTED_EDGE('',*,*,#1005,.F.);
#1005 = EDGE_CURVE('',#1006,#1006,#1008,.T.);
#1006 = VERTEX_POINT('',#1007);
#1007 = CARTESIAN_POINT('',(69.137,-33.,1.51));
#1008 = CIRCLE('',#1009,1.);
#1009 = AXIS2_PLACEMENT_3D('',#1010,#1011,#1012);
#1010 = CARTESIAN_POINT('',(68.137,-33.,1.51));
#1011 = DIRECTION('',(0.,0.,1.));
#1012 = DIRECTION('',(1.,0.,-0.));
#1013 = FACE_BOUND('',#1014,.T.);
#1014 = EDGE_LOOP('',(#1015));
#1015 = ORIENTED_EDGE('',*,*,#1016,.T.);
#1016 = EDGE_CURVE('',#1017,#1017,#1019,.T.);
#1017 = VERTEX_POINT('',#1018);
#1018 = CARTESIAN_POINT('',(49.897,0.5037,1.51));
#1019 = CIRCLE('',#1020,0.4953);
#1020 = AXIS2_PLACEMENT_3D('',#1021,#1022,#1023);
#1021 = CARTESIAN_POINT('',(49.897,0.999,1.51));
#1022 = DIRECTION('',(-0.,0.,-1.));
#1023 = DIRECTION('',(-0.,-1.,0.));
#1024 = FACE_BOUND('',#1025,.T.);
#1025 = EDGE_LOOP('',(#1026));
#1026 = ORIENTED_EDGE('',*,*,#1027,.T.);
#1027 = EDGE_CURVE('',#1028,#1028,#1030,.T.);
#1028 = VERTEX_POINT('',#1029);
#1029 = CARTESIAN_POINT('',(49.897,2.5357,1.51));
#1030 = CIRCLE('',#1031,0.4953);
#1031 = AXIS2_PLACEMENT_3D('',#1032,#1033,#1034);
#1032 = CARTESIAN_POINT('',(49.897,3.031,1.51));
#1033 = DIRECTION('',(-0.,0.,-1.));
#1034 = DIRECTION('',(-0.,-1.,0.));
#1035 = FACE_BOUND('',#1036,.T.);
#1036 = EDGE_LOOP('',(#1037));
#1037 = ORIENTED_EDGE('',*,*,#1038,.T.);
#1038 = EDGE_CURVE('',#1039,#1039,#1041,.T.);
#1039 = VERTEX_POINT('',#1040);
#1040 = CARTESIAN_POINT('',(51.802,3.36755,1.51));
#1041 = CIRCLE('',#1042,1.18745);
#1042 = AXIS2_PLACEMENT_3D('',#1043,#1044,#1045);
#1043 = CARTESIAN_POINT('',(51.802,4.555,1.51));
#1044 = DIRECTION('',(-0.,0.,-1.));
#1045 = DIRECTION('',(-0.,-1.,0.));
#1046 = FACE_BOUND('',#1047,.T.);
#1047 = EDGE_LOOP('',(#1048));
#1048 = ORIENTED_EDGE('',*,*,#1049,.T.);
#1049 = EDGE_CURVE('',#1050,#1050,#1052,.T.);
#1050 = VERTEX_POINT('',#1051);
#1051 = CARTESIAN_POINT('',(57.517,1.5197,1.51));
#1052 = CIRCLE('',#1053,0.4953);
#1053 = AXIS2_PLACEMENT_3D('',#1054,#1055,#1056);
#1054 = CARTESIAN_POINT('',(57.517,2.015,1.51));
#1055 = DIRECTION('',(-0.,0.,-1.));
#1056 = DIRECTION('',(-0.,-1.,0.));
#1057 = FACE_BOUND('',#1058,.T.);
#1058 = EDGE_LOOP('',(#1059));
#1059 = ORIENTED_EDGE('',*,*,#1060,.T.);
#1060 = EDGE_CURVE('',#1061,#1061,#1063,.T.);
#1061 = VERTEX_POINT('',#1062);
#1062 = CARTESIAN_POINT('',(57.517,3.36755,1.51));
#1063 = CIRCLE('',#1064,1.18745);
#1064 = AXIS2_PLACEMENT_3D('',#1065,#1066,#1067);
#1065 = CARTESIAN_POINT('',(57.517,4.555,1.51));
#1066 = DIRECTION('',(-0.,0.,-1.));
#1067 = DIRECTION('',(5.983769723021E-15,-1.,-0.));
#1068 = FACE_BOUND('',#1069,.T.);
#1069 = EDGE_LOOP('',(#1070));
#1070 = ORIENTED_EDGE('',*,*,#1071,.F.);
#1071 = EDGE_CURVE('',#1072,#1072,#1074,.T.);
#1072 = VERTEX_POINT('',#1073);
#1073 = CARTESIAN_POINT('',(69.137,0.,1.51));
#1074 = CIRCLE('',#1075,1.);
#1075 = AXIS2_PLACEMENT_3D('',#1076,#1077,#1078);
#1076 = CARTESIAN_POINT('',(68.137,0.,1.51));
#1077 = DIRECTION('',(0.,0.,1.));
#1078 = DIRECTION('',(1.,0.,-0.));
#1079 = FACE_BOUND('',#1080,.T.);
#1080 = EDGE_LOOP('',(#1081));
#1081 = ORIENTED_EDGE('',*,*,#1082,.F.);
#1082 = EDGE_CURVE('',#1083,#1083,#1085,.T.);
#1083 = VERTEX_POINT('',#1084);
#1084 = CARTESIAN_POINT('',(69.137,33.,1.51));
#1085 = CIRCLE('',#1086,1.);
#1086 = AXIS2_PLACEMENT_3D('',#1087,#1088,#1089);
#1087 = CARTESIAN_POINT('',(68.137,33.,1.51));
#1088 = DIRECTION('',(0.,0.,1.));
#1089 = DIRECTION('',(1.,0.,-0.));
#1090 = PLANE('',#1091);
#1091 = AXIS2_PLACEMENT_3D('',#1092,#1093,#1094);
#1092 = CARTESIAN_POINT('',(0.,0.,1.51));
#1093 = DIRECTION('',(0.,0.,1.));
#1094 = DIRECTION('',(1.,0.,-0.));
#1095 = ADVANCED_FACE('',(#1096),#1107,.T.);
#1096 = FACE_BOUND('',#1097,.T.);
#1097 = EDGE_LOOP('',(#1098,#1104,#1105,#1106));
#1098 = ORIENTED_EDGE('',*,*,#1099,.T.);
#1099 = EDGE_CURVE('',#146,#624,#1100,.T.);
#1100 = LINE('',#1101,#1102);
#1101 = CARTESIAN_POINT('',(54.137,57.5,0.));
#1102 = VECTOR('',#1103,1.);
#1103 = DIRECTION('',(0.,0.,1.));
#1104 = ORIENTED_EDGE('',*,*,#623,.T.);
#1105 = ORIENTED_EDGE('',*,*,#79,.F.);
#1106 = ORIENTED_EDGE('',*,*,#145,.F.);
#1107 = PLANE('',#1108);
#1108 = AXIS2_PLACEMENT_3D('',#1109,#1110,#1111);
#1109 = CARTESIAN_POINT('',(54.137,57.5,0.));
#1110 = DIRECTION('',(0.,1.,0.));
#1111 = DIRECTION('',(1.,0.,0.));
#1112 = ADVANCED_FACE('',(#1113),#1124,.T.);
#1113 = FACE_BOUND('',#1114,.T.);
#1114 = EDGE_LOOP('',(#1115,#1116,#1117,#1123));
#1115 = ORIENTED_EDGE('',*,*,#120,.T.);
#1116 = ORIENTED_EDGE('',*,*,#974,.T.);
#1117 = ORIENTED_EDGE('',*,*,#1118,.F.);
#1118 = EDGE_CURVE('',#488,#966,#1119,.T.);
#1119 = LINE('',#1120,#1121);
#1120 = CARTESIAN_POINT('',(52.137,-23.5,0.));
#1121 = VECTOR('',#1122,1.);
#1122 = DIRECTION('',(0.,0.,1.));
#1123 = ORIENTED_EDGE('',*,*,#496,.F.);
#1124 = PLANE('',#1125);
#1125 = AXIS2_PLACEMENT_3D('',#1126,#1127,#1128);
#1126 = CARTESIAN_POINT('',(52.137,-55.5,0.));
#1127 = DIRECTION('',(-1.,0.,0.));
#1128 = DIRECTION('',(0.,1.,0.));
#1129 = ADVANCED_FACE('',(#1130),#1141,.T.);
#1130 = FACE_BOUND('',#1131,.T.);
#1131 = EDGE_LOOP('',(#1132,#1138,#1139,#1140));
#1132 = ORIENTED_EDGE('',*,*,#1133,.T.);
#1133 = EDGE_CURVE('',#154,#632,#1134,.T.);
#1134 = LINE('',#1135,#1136);
#1135 = CARTESIAN_POINT('',(52.137,55.5,0.));
#1136 = VECTOR('',#1137,1.);
#1137 = DIRECTION('',(0.,0.,1.));
#1138 = ORIENTED_EDGE('',*,*,#631,.T.);
#1139 = ORIENTED_EDGE('',*,*,#1099,.F.);
#1140 = ORIENTED_EDGE('',*,*,#153,.F.);
#1141 = CYLINDRICAL_SURFACE('',#1142,1.99999850585);
#1142 = AXIS2_PLACEMENT_3D('',#1143,#1144,#1145);
#1143 = CARTESIAN_POINT('',(54.13699850585,55.50000149415,0.));
#1144 = DIRECTION('',(0.,0.,-1.));
#1145 = DIRECTION('',(-1.,-7.470757420593E-07,-0.));
#1146 = ADVANCED_FACE('',(#1147),#1158,.F.);
#1147 = FACE_BOUND('',#1148,.T.);
#1148 = EDGE_LOOP('',(#1149,#1150,#1151,#1157));
#1149 = ORIENTED_EDGE('',*,*,#1118,.T.);
#1150 = ORIENTED_EDGE('',*,*,#965,.T.);
#1151 = ORIENTED_EDGE('',*,*,#1152,.F.);
#1152 = EDGE_CURVE('',#480,#958,#1153,.T.);
#1153 = LINE('',#1154,#1155);
#1154 = CARTESIAN_POINT('',(50.137,-21.5,0.));
#1155 = VECTOR('',#1156,1.);
#1156 = DIRECTION('',(0.,0.,1.));
#1157 = ORIENTED_EDGE('',*,*,#487,.F.);
#1158 = CYLINDRICAL_SURFACE('',#1159,1.99999850585);
#1159 = AXIS2_PLACEMENT_3D('',#1160,#1161,#1162);
#1160 = CARTESIAN_POINT('',(50.13700149415,-23.49999850585,0.));
#1161 = DIRECTION('',(-0.,-0.,-1.));
#1162 = DIRECTION('',(1.,-7.470757438357E-07,0.));
#1163 = ADVANCED_FACE('',(#1164),#1175,.T.);
#1164 = FACE_BOUND('',#1165,.T.);
#1165 = EDGE_LOOP('',(#1166,#1172,#1173,#1174));
#1166 = ORIENTED_EDGE('',*,*,#1167,.T.);
#1167 = EDGE_CURVE('',#163,#641,#1168,.T.);
#1168 = LINE('',#1169,#1170);
#1169 = CARTESIAN_POINT('',(52.137,32.15,0.));
#1170 = VECTOR('',#1171,1.);
#1171 = DIRECTION('',(0.,0.,1.));
#1172 = ORIENTED_EDGE('',*,*,#640,.T.);
#1173 = ORIENTED_EDGE('',*,*,#1133,.F.);
#1174 = ORIENTED_EDGE('',*,*,#162,.F.);
#1175 = PLANE('',#1176);
#1176 = AXIS2_PLACEMENT_3D('',#1177,#1178,#1179);
#1177 = CARTESIAN_POINT('',(52.137,32.15,0.));
#1178 = DIRECTION('',(-1.,0.,0.));
#1179 = DIRECTION('',(0.,1.,0.));
#1180 = ADVANCED_FACE('',(#1181),#1192,.T.);
#1181 = FACE_BOUND('',#1182,.T.);
#1182 = EDGE_LOOP('',(#1183,#1184,#1185,#1191));
#1183 = ORIENTED_EDGE('',*,*,#1152,.T.);
#1184 = ORIENTED_EDGE('',*,*,#957,.T.);
#1185 = ORIENTED_EDGE('',*,*,#1186,.F.);
#1186 = EDGE_CURVE('',#471,#949,#1187,.T.);
#1187 = LINE('',#1188,#1189);
#1188 = CARTESIAN_POINT('',(24.137,-21.5,0.));
#1189 = VECTOR('',#1190,1.);
#1190 = DIRECTION('',(0.,0.,1.));
#1191 = ORIENTED_EDGE('',*,*,#479,.F.);
#1192 = PLANE('',#1193);
#1193 = AXIS2_PLACEMENT_3D('',#1194,#1195,#1196);
#1194 = CARTESIAN_POINT('',(50.137,-21.5,0.));
#1195 = DIRECTION('',(0.,-1.,0.));
#1196 = DIRECTION('',(-1.,0.,0.));
#1197 = ADVANCED_FACE('',(#1198),#1209,.T.);
#1198 = FACE_BOUND('',#1199,.T.);
#1199 = EDGE_LOOP('',(#1200,#1206,#1207,#1208));
#1200 = ORIENTED_EDGE('',*,*,#1201,.T.);
#1201 = EDGE_CURVE('',#171,#649,#1202,.T.);
#1202 = LINE('',#1203,#1204);
#1203 = CARTESIAN_POINT('',(52.137,31.45,0.));
#1204 = VECTOR('',#1205,1.);
#1205 = DIRECTION('',(0.,0.,1.));
#1206 = ORIENTED_EDGE('',*,*,#648,.T.);
#1207 = ORIENTED_EDGE('',*,*,#1167,.F.);
#1208 = ORIENTED_EDGE('',*,*,#170,.F.);
#1209 = PLANE('',#1210);
#1210 = AXIS2_PLACEMENT_3D('',#1211,#1212,#1213);
#1211 = CARTESIAN_POINT('',(52.137,31.45,0.));
#1212 = DIRECTION('',(-1.,0.,0.));
#1213 = DIRECTION('',(0.,1.,0.));
#1214 = ADVANCED_FACE('',(#1215),#1226,.T.);
#1215 = FACE_BOUND('',#1216,.T.);
#1216 = EDGE_LOOP('',(#1217,#1218,#1219,#1225));
#1217 = ORIENTED_EDGE('',*,*,#1186,.T.);
#1218 = ORIENTED_EDGE('',*,*,#948,.T.);
#1219 = ORIENTED_EDGE('',*,*,#1220,.F.);
#1220 = EDGE_CURVE('',#463,#941,#1221,.T.);
#1221 = LINE('',#1222,#1223);
#1222 = CARTESIAN_POINT('',(22.137,-19.5,0.));
#1223 = VECTOR('',#1224,1.);
#1224 = DIRECTION('',(0.,0.,1.));
#1225 = ORIENTED_EDGE('',*,*,#470,.F.);
#1226 = CYLINDRICAL_SURFACE('',#1227,1.99999850585);
#1227 = AXIS2_PLACEMENT_3D('',#1228,#1229,#1230);
#1228 = CARTESIAN_POINT('',(24.13699850585,-19.50000149415,0.));
#1229 = DIRECTION('',(0.,0.,-1.));
#1230 = DIRECTION('',(7.470757438357E-07,-1.,0.));
#1231 = ADVANCED_FACE('',(#1232),#1243,.F.);
#1232 = FACE_BOUND('',#1233,.T.);
#1233 = EDGE_LOOP('',(#1234,#1240,#1241,#1242));
#1234 = ORIENTED_EDGE('',*,*,#1235,.T.);
#1235 = EDGE_CURVE('',#179,#657,#1236,.T.);
#1236 = LINE('',#1237,#1238);
#1237 = CARTESIAN_POINT('',(51.837,31.15,0.));
#1238 = VECTOR('',#1239,1.);
#1239 = DIRECTION('',(0.,0.,1.));
#1240 = ORIENTED_EDGE('',*,*,#656,.T.);
#1241 = ORIENTED_EDGE('',*,*,#1201,.F.);
#1242 = ORIENTED_EDGE('',*,*,#178,.F.);
#1243 = CYLINDRICAL_SURFACE('',#1244,0.300000117299);
#1244 = AXIS2_PLACEMENT_3D('',#1245,#1246,#1247);
#1245 = CARTESIAN_POINT('',(51.836999882701,31.450000117299,0.));
#1246 = DIRECTION('',(-0.,-0.,-1.));
#1247 = DIRECTION('',(3.909953616065E-07,-1.,0.));
#1248 = ADVANCED_FACE('',(#1249),#1260,.T.);
#1249 = FACE_BOUND('',#1250,.T.);
#1250 = EDGE_LOOP('',(#1251,#1252,#1253,#1259));
#1251 = ORIENTED_EDGE('',*,*,#1220,.T.);
#1252 = ORIENTED_EDGE('',*,*,#940,.T.);
#1253 = ORIENTED_EDGE('',*,*,#1254,.F.);
#1254 = EDGE_CURVE('',#454,#932,#1255,.T.);
#1255 = LINE('',#1256,#1257);
#1256 = CARTESIAN_POINT('',(22.137,-13.5,0.));
#1257 = VECTOR('',#1258,1.);
#1258 = DIRECTION('',(0.,0.,1.));
#1259 = ORIENTED_EDGE('',*,*,#462,.F.);
#1260 = PLANE('',#1261);
#1261 = AXIS2_PLACEMENT_3D('',#1262,#1263,#1264);
#1262 = CARTESIAN_POINT('',(22.137,-19.5,0.));
#1263 = DIRECTION('',(-1.,0.,0.));
#1264 = DIRECTION('',(0.,1.,0.));
#1265 = ADVANCED_FACE('',(#1266),#1277,.T.);
#1266 = FACE_BOUND('',#1267,.T.);
#1267 = EDGE_LOOP('',(#1268,#1274,#1275,#1276));
#1268 = ORIENTED_EDGE('',*,*,#1269,.T.);
#1269 = EDGE_CURVE('',#188,#666,#1270,.T.);
#1270 = LINE('',#1271,#1272);
#1271 = CARTESIAN_POINT('',(48.137,31.15,0.));
#1272 = VECTOR('',#1273,1.);
#1273 = DIRECTION('',(0.,0.,1.));
#1274 = ORIENTED_EDGE('',*,*,#665,.T.);
#1275 = ORIENTED_EDGE('',*,*,#1235,.F.);
#1276 = ORIENTED_EDGE('',*,*,#187,.F.);
#1277 = PLANE('',#1278);
#1278 = AXIS2_PLACEMENT_3D('',#1279,#1280,#1281);
#1279 = CARTESIAN_POINT('',(48.137,31.15,0.));
#1280 = DIRECTION('',(0.,1.,0.));
#1281 = DIRECTION('',(1.,0.,0.));
#1282 = ADVANCED_FACE('',(#1283),#1294,.F.);
#1283 = FACE_BOUND('',#1284,.T.);
#1284 = EDGE_LOOP('',(#1285,#1286,#1287,#1293));
#1285 = ORIENTED_EDGE('',*,*,#1254,.T.);
#1286 = ORIENTED_EDGE('',*,*,#931,.T.);
#1287 = ORIENTED_EDGE('',*,*,#1288,.F.);
#1288 = EDGE_CURVE('',#446,#924,#1289,.T.);
#1289 = LINE('',#1290,#1291);
#1290 = CARTESIAN_POINT('',(20.137,-11.5,0.));
#1291 = VECTOR('',#1292,1.);
#1292 = DIRECTION('',(0.,0.,1.));
#1293 = ORIENTED_EDGE('',*,*,#453,.F.);
#1294 = CYLINDRICAL_SURFACE('',#1295,1.99999850585);
#1295 = AXIS2_PLACEMENT_3D('',#1296,#1297,#1298);
#1296 = CARTESIAN_POINT('',(20.13700149415,-13.49999850585,0.));
#1297 = DIRECTION('',(-0.,-0.,-1.));
#1298 = DIRECTION('',(1.,-7.470757420593E-07,0.));
#1299 = ADVANCED_FACE('',(#1300),#1311,.T.);
#1300 = FACE_BOUND('',#1301,.T.);
#1301 = EDGE_LOOP('',(#1302,#1308,#1309,#1310));
#1302 = ORIENTED_EDGE('',*,*,#1303,.T.);
#1303 = EDGE_CURVE('',#196,#674,#1304,.T.);
#1304 = LINE('',#1305,#1306);
#1305 = CARTESIAN_POINT('',(47.837,30.85,0.));
#1306 = VECTOR('',#1307,1.);
#1307 = DIRECTION('',(0.,0.,1.));
#1308 = ORIENTED_EDGE('',*,*,#673,.T.);
#1309 = ORIENTED_EDGE('',*,*,#1269,.F.);
#1310 = ORIENTED_EDGE('',*,*,#195,.F.);
#1311 = PLANE('',#1312);
#1312 = AXIS2_PLACEMENT_3D('',#1313,#1314,#1315);
#1313 = CARTESIAN_POINT('',(47.837,30.85,0.));
#1314 = DIRECTION('',(-0.707106781187,0.707106781187,0.));
#1315 = DIRECTION('',(0.707106781187,0.707106781187,0.));
#1316 = ADVANCED_FACE('',(#1317),#1328,.T.);
#1317 = FACE_BOUND('',#1318,.T.);
#1318 = EDGE_LOOP('',(#1319,#1320,#1321,#1327));
#1319 = ORIENTED_EDGE('',*,*,#1288,.T.);
#1320 = ORIENTED_EDGE('',*,*,#923,.T.);
#1321 = ORIENTED_EDGE('',*,*,#1322,.F.);
#1322 = EDGE_CURVE('',#437,#915,#1323,.T.);
#1323 = LINE('',#1324,#1325);
#1324 = CARTESIAN_POINT('',(-55.863,-11.5,0.));
#1325 = VECTOR('',#1326,1.);
#1326 = DIRECTION('',(0.,0.,1.));
#1327 = ORIENTED_EDGE('',*,*,#445,.F.);
#1328 = PLANE('',#1329);
#1329 = AXIS2_PLACEMENT_3D('',#1330,#1331,#1332);
#1330 = CARTESIAN_POINT('',(20.137,-11.5,0.));
#1331 = DIRECTION('',(0.,-1.,0.));
#1332 = DIRECTION('',(-1.,0.,0.));
#1333 = ADVANCED_FACE('',(#1334),#1345,.T.);
#1334 = FACE_BOUND('',#1335,.T.);
#1335 = EDGE_LOOP('',(#1336,#1342,#1343,#1344));
#1336 = ORIENTED_EDGE('',*,*,#1337,.T.);
#1337 = EDGE_CURVE('',#204,#682,#1338,.T.);
#1338 = LINE('',#1339,#1340);
#1339 = CARTESIAN_POINT('',(47.837,27.125,0.));
#1340 = VECTOR('',#1341,1.);
#1341 = DIRECTION('',(0.,0.,1.));
#1342 = ORIENTED_EDGE('',*,*,#681,.T.);
#1343 = ORIENTED_EDGE('',*,*,#1303,.F.);
#1344 = ORIENTED_EDGE('',*,*,#203,.F.);
#1345 = PLANE('',#1346);
#1346 = AXIS2_PLACEMENT_3D('',#1347,#1348,#1349);
#1347 = CARTESIAN_POINT('',(47.837,27.125,0.));
#1348 = DIRECTION('',(-1.,0.,0.));
#1349 = DIRECTION('',(0.,1.,0.));
#1350 = ADVANCED_FACE('',(#1351),#1362,.T.);
#1351 = FACE_BOUND('',#1352,.T.);
#1352 = EDGE_LOOP('',(#1353,#1354,#1355,#1361));
#1353 = ORIENTED_EDGE('',*,*,#1322,.T.);
#1354 = ORIENTED_EDGE('',*,*,#914,.T.);
#1355 = ORIENTED_EDGE('',*,*,#1356,.F.);
#1356 = EDGE_CURVE('',#429,#907,#1357,.T.);
#1357 = LINE('',#1358,#1359);
#1358 = CARTESIAN_POINT('',(-57.863,-9.5,0.));
#1359 = VECTOR('',#1360,1.);
#1360 = DIRECTION('',(0.,0.,1.));
#1361 = ORIENTED_EDGE('',*,*,#436,.F.);
#1362 = CYLINDRICAL_SURFACE('',#1363,1.99999850585);
#1363 = AXIS2_PLACEMENT_3D('',#1364,#1365,#1366);
#1364 = CARTESIAN_POINT('',(-55.86300149415,-9.50000149415,0.));
#1365 = DIRECTION('',(0.,0.,-1.));
#1366 = DIRECTION('',(7.470757420593E-07,-1.,0.));
#1367 = ADVANCED_FACE('',(#1368),#1379,.T.);
#1368 = FACE_BOUND('',#1369,.T.);
#1369 = EDGE_LOOP('',(#1370,#1376,#1377,#1378));
#1370 = ORIENTED_EDGE('',*,*,#1371,.T.);
#1371 = EDGE_CURVE('',#212,#690,#1372,.T.);
#1372 = LINE('',#1373,#1374);
#1373 = CARTESIAN_POINT('',(48.137,26.85,0.));
#1374 = VECTOR('',#1375,1.);
#1375 = DIRECTION('',(0.,0.,1.));
#1376 = ORIENTED_EDGE('',*,*,#689,.T.);
#1377 = ORIENTED_EDGE('',*,*,#1337,.F.);
#1378 = ORIENTED_EDGE('',*,*,#211,.F.);
#1379 = PLANE('',#1380);
#1380 = AXIS2_PLACEMENT_3D('',#1381,#1382,#1383);
#1381 = CARTESIAN_POINT('',(48.137,26.85,0.));
#1382 = DIRECTION('',(-0.675724628517,-0.737154140201,0.));
#1383 = DIRECTION('',(-0.737154140201,0.675724628517,0.));
#1384 = ADVANCED_FACE('',(#1385),#1396,.T.);
#1385 = FACE_BOUND('',#1386,.T.);
#1386 = EDGE_LOOP('',(#1387,#1388,#1389,#1395));
#1387 = ORIENTED_EDGE('',*,*,#1356,.T.);
#1388 = ORIENTED_EDGE('',*,*,#906,.T.);
#1389 = ORIENTED_EDGE('',*,*,#1390,.F.);
#1390 = EDGE_CURVE('',#420,#898,#1391,.T.);
#1391 = LINE('',#1392,#1393);
#1392 = CARTESIAN_POINT('',(-57.863,-4.5,0.));
#1393 = VECTOR('',#1394,1.);
#1394 = DIRECTION('',(0.,0.,1.));
#1395 = ORIENTED_EDGE('',*,*,#428,.F.);
#1396 = PLANE('',#1397);
#1397 = AXIS2_PLACEMENT_3D('',#1398,#1399,#1400);
#1398 = CARTESIAN_POINT('',(-57.863,-9.5,0.));
#1399 = DIRECTION('',(-1.,0.,0.));
#1400 = DIRECTION('',(0.,1.,0.));
#1401 = ADVANCED_FACE('',(#1402),#1413,.T.);
#1402 = FACE_BOUND('',#1403,.T.);
#1403 = EDGE_LOOP('',(#1404,#1410,#1411,#1412));
#1404 = ORIENTED_EDGE('',*,*,#1405,.T.);
#1405 = EDGE_CURVE('',#220,#698,#1406,.T.);
#1406 = LINE('',#1407,#1408);
#1407 = CARTESIAN_POINT('',(51.837,26.85,0.));
#1408 = VECTOR('',#1409,1.);
#1409 = DIRECTION('',(0.,0.,1.));
#1410 = ORIENTED_EDGE('',*,*,#697,.T.);
#1411 = ORIENTED_EDGE('',*,*,#1371,.F.);
#1412 = ORIENTED_EDGE('',*,*,#219,.F.);
#1413 = PLANE('',#1414);
#1414 = AXIS2_PLACEMENT_3D('',#1415,#1416,#1417);
#1415 = CARTESIAN_POINT('',(51.837,26.85,0.));
#1416 = DIRECTION('',(0.,-1.,0.));
#1417 = DIRECTION('',(-1.,0.,0.));
#1418 = ADVANCED_FACE('',(#1419),#1430,.F.);
#1419 = FACE_BOUND('',#1420,.T.);
#1420 = EDGE_LOOP('',(#1421,#1422,#1423,#1429));
#1421 = ORIENTED_EDGE('',*,*,#1390,.T.);
#1422 = ORIENTED_EDGE('',*,*,#897,.T.);
#1423 = ORIENTED_EDGE('',*,*,#1424,.F.);
#1424 = EDGE_CURVE('',#412,#890,#1425,.T.);
#1425 = LINE('',#1426,#1427);
#1426 = CARTESIAN_POINT('',(-59.863,-2.5,0.));
#1427 = VECTOR('',#1428,1.);
#1428 = DIRECTION('',(0.,0.,1.));
#1429 = ORIENTED_EDGE('',*,*,#419,.F.);
#1430 = CYLINDRICAL_SURFACE('',#1431,1.99999850585);
#1431 = AXIS2_PLACEMENT_3D('',#1432,#1433,#1434);
#1432 = CARTESIAN_POINT('',(-59.86299850585,-4.49999850585,0.));
#1433 = DIRECTION('',(-0.,-0.,-1.));
#1434 = DIRECTION('',(1.,-7.470757425034E-07,0.));
#1435 = ADVANCED_FACE('',(#1436),#1447,.F.);
#1436 = FACE_BOUND('',#1437,.T.);
#1437 = EDGE_LOOP('',(#1438,#1444,#1445,#1446));
#1438 = ORIENTED_EDGE('',*,*,#1439,.T.);
#1439 = EDGE_CURVE('',#228,#706,#1440,.T.);
#1440 = LINE('',#1441,#1442);
#1441 = CARTESIAN_POINT('',(52.137,26.55,0.));
#1442 = VECTOR('',#1443,1.);
#1443 = DIRECTION('',(0.,0.,1.));
#1444 = ORIENTED_EDGE('',*,*,#705,.T.);
#1445 = ORIENTED_EDGE('',*,*,#1405,.F.);
#1446 = ORIENTED_EDGE('',*,*,#227,.F.);
#1447 = CYLINDRICAL_SURFACE('',#1448,0.300000117299);
#1448 = AXIS2_PLACEMENT_3D('',#1449,#1450,#1451);
#1449 = CARTESIAN_POINT('',(51.836999882701,26.549999882701,0.));
#1450 = DIRECTION('',(-0.,-0.,-1.));
#1451 = DIRECTION('',(1.,3.909953616065E-07,-0.));
#1452 = ADVANCED_FACE('',(#1453),#1464,.T.);
#1453 = FACE_BOUND('',#1454,.T.);
#1454 = EDGE_LOOP('',(#1455,#1456,#1457,#1463));
#1455 = ORIENTED_EDGE('',*,*,#1424,.T.);
#1456 = ORIENTED_EDGE('',*,*,#889,.T.);
#1457 = ORIENTED_EDGE('',*,*,#1458,.F.);
#1458 = EDGE_CURVE('',#403,#881,#1459,.T.);
#1459 = LINE('',#1460,#1461);
#1460 = CARTESIAN_POINT('',(-66.863,-2.5,0.));
#1461 = VECTOR('',#1462,1.);
#1462 = DIRECTION('',(0.,0.,1.));
#1463 = ORIENTED_EDGE('',*,*,#411,.F.);
#1464 = PLANE('',#1465);
#1465 = AXIS2_PLACEMENT_3D('',#1466,#1467,#1468);
#1466 = CARTESIAN_POINT('',(-59.863,-2.5,0.));
#1467 = DIRECTION('',(0.,-1.,0.));
#1468 = DIRECTION('',(-1.,0.,0.));
#1469 = ADVANCED_FACE('',(#1470),#1481,.T.);
#1470 = FACE_BOUND('',#1471,.T.);
#1471 = EDGE_LOOP('',(#1472,#1478,#1479,#1480));
#1472 = ORIENTED_EDGE('',*,*,#1473,.T.);
#1473 = EDGE_CURVE('',#237,#715,#1474,.T.);
#1474 = LINE('',#1475,#1476);
#1475 = CARTESIAN_POINT('',(52.137,25.85,0.));
#1476 = VECTOR('',#1477,1.);
#1477 = DIRECTION('',(0.,0.,1.));
#1478 = ORIENTED_EDGE('',*,*,#714,.T.);
#1479 = ORIENTED_EDGE('',*,*,#1439,.F.);
#1480 = ORIENTED_EDGE('',*,*,#236,.F.);
#1481 = PLANE('',#1482);
#1482 = AXIS2_PLACEMENT_3D('',#1483,#1484,#1485);
#1483 = CARTESIAN_POINT('',(52.137,25.85,0.));
#1484 = DIRECTION('',(-1.,0.,0.));
#1485 = DIRECTION('',(0.,1.,0.));
#1486 = ADVANCED_FACE('',(#1487),#1498,.T.);
#1487 = FACE_BOUND('',#1488,.T.);
#1488 = EDGE_LOOP('',(#1489,#1490,#1491,#1497));
#1489 = ORIENTED_EDGE('',*,*,#1458,.T.);
#1490 = ORIENTED_EDGE('',*,*,#880,.T.);
#1491 = ORIENTED_EDGE('',*,*,#1492,.F.);
#1492 = EDGE_CURVE('',#395,#873,#1493,.T.);
#1493 = LINE('',#1494,#1495);
#1494 = CARTESIAN_POINT('',(-67.863,-1.5,0.));
#1495 = VECTOR('',#1496,1.);
#1496 = DIRECTION('',(0.,0.,1.));
#1497 = ORIENTED_EDGE('',*,*,#402,.F.);
#1498 = CYLINDRICAL_SURFACE('',#1499,0.999999252925);
#1499 = AXIS2_PLACEMENT_3D('',#1500,#1501,#1502);
#1500 = CARTESIAN_POINT('',(-66.86300074707,-1.500000747075,0.));
#1501 = DIRECTION('',(0.,0.,-1.));
#1502 = DIRECTION('',(7.470757349539E-07,-1.,0.));
#1503 = ADVANCED_FACE('',(#1504),#1515,.T.);
#1504 = FACE_BOUND('',#1505,.T.);
#1505 = EDGE_LOOP('',(#1506,#1512,#1513,#1514));
#1506 = ORIENTED_EDGE('',*,*,#1507,.T.);
#1507 = EDGE_CURVE('',#245,#723,#1508,.T.);
#1508 = LINE('',#1509,#1510);
#1509 = CARTESIAN_POINT('',(52.137,19.5,0.));
#1510 = VECTOR('',#1511,1.);
#1511 = DIRECTION('',(0.,0.,1.));
#1512 = ORIENTED_EDGE('',*,*,#722,.T.);
#1513 = ORIENTED_EDGE('',*,*,#1473,.F.);
#1514 = ORIENTED_EDGE('',*,*,#244,.F.);
#1515 = PLANE('',#1516);
#1516 = AXIS2_PLACEMENT_3D('',#1517,#1518,#1519);
#1517 = CARTESIAN_POINT('',(52.137,19.5,0.));
#1518 = DIRECTION('',(-1.,0.,0.));
#1519 = DIRECTION('',(0.,1.,0.));
#1520 = ADVANCED_FACE('',(#1521),#1532,.T.);
#1521 = FACE_BOUND('',#1522,.T.);
#1522 = EDGE_LOOP('',(#1523,#1524,#1525,#1531));
#1523 = ORIENTED_EDGE('',*,*,#1492,.T.);
#1524 = ORIENTED_EDGE('',*,*,#872,.T.);
#1525 = ORIENTED_EDGE('',*,*,#1526,.F.);
#1526 = EDGE_CURVE('',#387,#865,#1527,.T.);
#1527 = LINE('',#1528,#1529);
#1528 = CARTESIAN_POINT('',(-67.863,0.5,0.));
#1529 = VECTOR('',#1530,1.);
#1530 = DIRECTION('',(0.,0.,1.));
#1531 = ORIENTED_EDGE('',*,*,#394,.F.);
#1532 = PLANE('',#1533);
#1533 = AXIS2_PLACEMENT_3D('',#1534,#1535,#1536);
#1534 = CARTESIAN_POINT('',(-67.863,-1.5,0.));
#1535 = DIRECTION('',(-1.,0.,0.));
#1536 = DIRECTION('',(0.,1.,0.));
#1537 = ADVANCED_FACE('',(#1538),#1549,.F.);
#1538 = FACE_BOUND('',#1539,.T.);
#1539 = EDGE_LOOP('',(#1540,#1546,#1547,#1548));
#1540 = ORIENTED_EDGE('',*,*,#1541,.T.);
#1541 = EDGE_CURVE('',#253,#731,#1542,.T.);
#1542 = LINE('',#1543,#1544);
#1543 = CARTESIAN_POINT('',(51.137,18.5,0.));
#1544 = VECTOR('',#1545,1.);
#1545 = DIRECTION('',(0.,0.,1.));
#1546 = ORIENTED_EDGE('',*,*,#730,.T.);
#1547 = ORIENTED_EDGE('',*,*,#1507,.F.);
#1548 = ORIENTED_EDGE('',*,*,#252,.F.);
#1549 = CYLINDRICAL_SURFACE('',#1550,0.999999252925);
#1550 = AXIS2_PLACEMENT_3D('',#1551,#1552,#1553);
#1551 = CARTESIAN_POINT('',(51.137000747075,19.499999252925,0.));
#1552 = DIRECTION('',(-0.,-0.,-1.));
#1553 = DIRECTION('',(-7.470757491648E-07,-1.,0.));
#1554 = ADVANCED_FACE('',(#1555),#1566,.T.);
#1555 = FACE_BOUND('',#1556,.T.);
#1556 = EDGE_LOOP('',(#1557,#1558,#1559,#1565));
#1557 = ORIENTED_EDGE('',*,*,#1526,.T.);
#1558 = ORIENTED_EDGE('',*,*,#864,.T.);
#1559 = ORIENTED_EDGE('',*,*,#1560,.F.);
#1560 = EDGE_CURVE('',#378,#856,#1561,.T.);
#1561 = LINE('',#1562,#1563);
#1562 = CARTESIAN_POINT('',(-67.863,1.2,0.));
#1563 = VECTOR('',#1564,1.);
#1564 = DIRECTION('',(0.,0.,1.));
#1565 = ORIENTED_EDGE('',*,*,#386,.F.);
#1566 = PLANE('',#1567);
#1567 = AXIS2_PLACEMENT_3D('',#1568,#1569,#1570);
#1568 = CARTESIAN_POINT('',(-67.863,0.5,0.));
#1569 = DIRECTION('',(-1.,0.,0.));
#1570 = DIRECTION('',(0.,1.,0.));
#1571 = ADVANCED_FACE('',(#1572),#1583,.T.);
#1572 = FACE_BOUND('',#1573,.T.);
#1573 = EDGE_LOOP('',(#1574,#1580,#1581,#1582));
#1574 = ORIENTED_EDGE('',*,*,#1575,.T.);
#1575 = EDGE_CURVE('',#262,#740,#1576,.T.);
#1576 = LINE('',#1577,#1578);
#1577 = CARTESIAN_POINT('',(-55.863,18.5,0.));
#1578 = VECTOR('',#1579,1.);
#1579 = DIRECTION('',(0.,0.,1.));
#1580 = ORIENTED_EDGE('',*,*,#739,.T.);
#1581 = ORIENTED_EDGE('',*,*,#1541,.F.);
#1582 = ORIENTED_EDGE('',*,*,#261,.F.);
#1583 = PLANE('',#1584);
#1584 = AXIS2_PLACEMENT_3D('',#1585,#1586,#1587);
#1585 = CARTESIAN_POINT('',(-55.863,18.5,0.));
#1586 = DIRECTION('',(0.,1.,0.));
#1587 = DIRECTION('',(1.,0.,0.));
#1588 = ADVANCED_FACE('',(#1589),#1600,.F.);
#1589 = FACE_BOUND('',#1590,.T.);
#1590 = EDGE_LOOP('',(#1591,#1592,#1593,#1599));
#1591 = ORIENTED_EDGE('',*,*,#1560,.T.);
#1592 = ORIENTED_EDGE('',*,*,#855,.T.);
#1593 = ORIENTED_EDGE('',*,*,#1594,.F.);
#1594 = EDGE_CURVE('',#370,#848,#1595,.T.);
#1595 = LINE('',#1596,#1597);
#1596 = CARTESIAN_POINT('',(-68.163,1.5,0.));
#1597 = VECTOR('',#1598,1.);
#1598 = DIRECTION('',(0.,0.,1.));
#1599 = ORIENTED_EDGE('',*,*,#377,.F.);
#1600 = CYLINDRICAL_SURFACE('',#1601,0.300000117299);
#1601 = AXIS2_PLACEMENT_3D('',#1602,#1603,#1604);
#1602 = CARTESIAN_POINT('',(-68.16300011729,1.199999882701,0.));
#1603 = DIRECTION('',(-0.,-0.,-1.));
#1604 = DIRECTION('',(1.,3.909953519845E-07,-0.));
#1605 = ADVANCED_FACE('',(#1606),#1617,.T.);
#1606 = FACE_BOUND('',#1607,.T.);
#1607 = EDGE_LOOP('',(#1608,#1614,#1615,#1616));
#1608 = ORIENTED_EDGE('',*,*,#1609,.T.);
#1609 = EDGE_CURVE('',#270,#748,#1610,.T.);
#1610 = LINE('',#1611,#1612);
#1611 = CARTESIAN_POINT('',(-57.863,16.5,0.));
#1612 = VECTOR('',#1613,1.);
#1613 = DIRECTION('',(0.,0.,1.));
#1614 = ORIENTED_EDGE('',*,*,#747,.T.);
#1615 = ORIENTED_EDGE('',*,*,#1575,.F.);
#1616 = ORIENTED_EDGE('',*,*,#269,.F.);
#1617 = CYLINDRICAL_SURFACE('',#1618,1.99999850585);
#1618 = AXIS2_PLACEMENT_3D('',#1619,#1620,#1621);
#1619 = CARTESIAN_POINT('',(-55.86300149415,16.50000149415,0.));
#1620 = DIRECTION('',(0.,0.,-1.));
#1621 = DIRECTION('',(-1.,-7.470757438357E-07,-0.));
#1622 = ADVANCED_FACE('',(#1623),#1634,.T.);
#1623 = FACE_BOUND('',#1624,.T.);
#1624 = EDGE_LOOP('',(#1625,#1626,#1627,#1633));
#1625 = ORIENTED_EDGE('',*,*,#1594,.T.);
#1626 = ORIENTED_EDGE('',*,*,#847,.T.);
#1627 = ORIENTED_EDGE('',*,*,#1628,.F.);
#1628 = EDGE_CURVE('',#362,#840,#1629,.T.);
#1629 = LINE('',#1630,#1631);
#1630 = CARTESIAN_POINT('',(-71.863,1.5,0.));
#1631 = VECTOR('',#1632,1.);
#1632 = DIRECTION('',(0.,0.,1.));
#1633 = ORIENTED_EDGE('',*,*,#369,.F.);
#1634 = PLANE('',#1635);
#1635 = AXIS2_PLACEMENT_3D('',#1636,#1637,#1638);
#1636 = CARTESIAN_POINT('',(-68.163,1.5,0.));
#1637 = DIRECTION('',(0.,-1.,0.));
#1638 = DIRECTION('',(-1.,0.,0.));
#1639 = ADVANCED_FACE('',(#1640),#1651,.T.);
#1640 = FACE_BOUND('',#1641,.T.);
#1641 = EDGE_LOOP('',(#1642,#1648,#1649,#1650));
#1642 = ORIENTED_EDGE('',*,*,#1643,.T.);
#1643 = EDGE_CURVE('',#279,#757,#1644,.T.);
#1644 = LINE('',#1645,#1646);
#1645 = CARTESIAN_POINT('',(-57.863,11.5,0.));
#1646 = VECTOR('',#1647,1.);
#1647 = DIRECTION('',(0.,0.,1.));
#1648 = ORIENTED_EDGE('',*,*,#756,.T.);
#1649 = ORIENTED_EDGE('',*,*,#1609,.F.);
#1650 = ORIENTED_EDGE('',*,*,#278,.F.);
#1651 = PLANE('',#1652);
#1652 = AXIS2_PLACEMENT_3D('',#1653,#1654,#1655);
#1653 = CARTESIAN_POINT('',(-57.863,11.5,0.));
#1654 = DIRECTION('',(-1.,0.,0.));
#1655 = DIRECTION('',(0.,1.,0.));
#1656 = ADVANCED_FACE('',(#1657),#1668,.T.);
#1657 = FACE_BOUND('',#1658,.T.);
#1658 = EDGE_LOOP('',(#1659,#1660,#1661,#1667));
#1659 = ORIENTED_EDGE('',*,*,#1628,.T.);
#1660 = ORIENTED_EDGE('',*,*,#839,.T.);
#1661 = ORIENTED_EDGE('',*,*,#1662,.F.);
#1662 = EDGE_CURVE('',#354,#832,#1663,.T.);
#1663 = LINE('',#1664,#1665);
#1664 = CARTESIAN_POINT('',(-72.163,1.8,0.));
#1665 = VECTOR('',#1666,1.);
#1666 = DIRECTION('',(0.,0.,1.));
#1667 = ORIENTED_EDGE('',*,*,#361,.F.);
#1668 = PLANE('',#1669);
#1669 = AXIS2_PLACEMENT_3D('',#1670,#1671,#1672);
#1670 = CARTESIAN_POINT('',(-71.863,1.5,0.));
#1671 = DIRECTION('',(-0.707106781187,-0.707106781187,0.));
#1672 = DIRECTION('',(-0.707106781187,0.707106781187,0.));
#1673 = ADVANCED_FACE('',(#1674),#1685,.F.);
#1674 = FACE_BOUND('',#1675,.T.);
#1675 = EDGE_LOOP('',(#1676,#1682,#1683,#1684));
#1676 = ORIENTED_EDGE('',*,*,#1677,.T.);
#1677 = EDGE_CURVE('',#287,#765,#1678,.T.);
#1678 = LINE('',#1679,#1680);
#1679 = CARTESIAN_POINT('',(-59.863,9.5,0.));
#1680 = VECTOR('',#1681,1.);
#1681 = DIRECTION('',(0.,0.,1.));
#1682 = ORIENTED_EDGE('',*,*,#764,.T.);
#1683 = ORIENTED_EDGE('',*,*,#1643,.F.);
#1684 = ORIENTED_EDGE('',*,*,#286,.F.);
#1685 = CYLINDRICAL_SURFACE('',#1686,1.99999850585);
#1686 = AXIS2_PLACEMENT_3D('',#1687,#1688,#1689);
#1687 = CARTESIAN_POINT('',(-59.86299850585,11.49999850585,0.));
#1688 = DIRECTION('',(-0.,-0.,-1.));
#1689 = DIRECTION('',(-7.470757420593E-07,-1.,0.));
#1690 = ADVANCED_FACE('',(#1691),#1702,.T.);
#1691 = FACE_BOUND('',#1692,.T.);
#1692 = EDGE_LOOP('',(#1693,#1694,#1695,#1701));
#1693 = ORIENTED_EDGE('',*,*,#1662,.T.);
#1694 = ORIENTED_EDGE('',*,*,#831,.T.);
#1695 = ORIENTED_EDGE('',*,*,#1696,.F.);
#1696 = EDGE_CURVE('',#346,#824,#1697,.T.);
#1697 = LINE('',#1698,#1699);
#1698 = CARTESIAN_POINT('',(-72.163,5.525,0.));
#1699 = VECTOR('',#1700,1.);
#1700 = DIRECTION('',(0.,0.,1.));
#1701 = ORIENTED_EDGE('',*,*,#353,.F.);
#1702 = PLANE('',#1703);
#1703 = AXIS2_PLACEMENT_3D('',#1704,#1705,#1706);
#1704 = CARTESIAN_POINT('',(-72.163,1.8,0.));
#1705 = DIRECTION('',(-1.,0.,0.));
#1706 = DIRECTION('',(0.,1.,0.));
#1707 = ADVANCED_FACE('',(#1708),#1719,.T.);
#1708 = FACE_BOUND('',#1709,.T.);
#1709 = EDGE_LOOP('',(#1710,#1716,#1717,#1718));
#1710 = ORIENTED_EDGE('',*,*,#1711,.T.);
#1711 = EDGE_CURVE('',#296,#774,#1712,.T.);
#1712 = LINE('',#1713,#1714);
#1713 = CARTESIAN_POINT('',(-66.863,9.5,0.));
#1714 = VECTOR('',#1715,1.);
#1715 = DIRECTION('',(0.,0.,1.));
#1716 = ORIENTED_EDGE('',*,*,#773,.T.);
#1717 = ORIENTED_EDGE('',*,*,#1677,.F.);
#1718 = ORIENTED_EDGE('',*,*,#295,.F.);
#1719 = PLANE('',#1720);
#1720 = AXIS2_PLACEMENT_3D('',#1721,#1722,#1723);
#1721 = CARTESIAN_POINT('',(-66.863,9.5,0.));
#1722 = DIRECTION('',(0.,1.,0.));
#1723 = DIRECTION('',(1.,0.,0.));
#1724 = ADVANCED_FACE('',(#1725),#1736,.T.);
#1725 = FACE_BOUND('',#1726,.T.);
#1726 = EDGE_LOOP('',(#1727,#1728,#1729,#1735));
#1727 = ORIENTED_EDGE('',*,*,#1696,.T.);
#1728 = ORIENTED_EDGE('',*,*,#823,.T.);
#1729 = ORIENTED_EDGE('',*,*,#1730,.F.);
#1730 = EDGE_CURVE('',#338,#816,#1731,.T.);
#1731 = LINE('',#1732,#1733);
#1732 = CARTESIAN_POINT('',(-71.863,5.8,0.));
#1733 = VECTOR('',#1734,1.);
#1734 = DIRECTION('',(0.,0.,1.));
#1735 = ORIENTED_EDGE('',*,*,#345,.F.);
#1736 = PLANE('',#1737);
#1737 = AXIS2_PLACEMENT_3D('',#1738,#1739,#1740);
#1738 = CARTESIAN_POINT('',(-72.163,5.525,0.));
#1739 = DIRECTION('',(-0.675724628517,0.737154140201,0.));
#1740 = DIRECTION('',(0.737154140201,0.675724628517,0.));
#1741 = ADVANCED_FACE('',(#1742),#1753,.T.);
#1742 = FACE_BOUND('',#1743,.T.);
#1743 = EDGE_LOOP('',(#1744,#1750,#1751,#1752));
#1744 = ORIENTED_EDGE('',*,*,#1745,.T.);
#1745 = EDGE_CURVE('',#304,#782,#1746,.T.);
#1746 = LINE('',#1747,#1748);
#1747 = CARTESIAN_POINT('',(-67.863,8.5,0.));
#1748 = VECTOR('',#1749,1.);
#1749 = DIRECTION('',(0.,0.,1.));
#1750 = ORIENTED_EDGE('',*,*,#781,.T.);
#1751 = ORIENTED_EDGE('',*,*,#1711,.F.);
#1752 = ORIENTED_EDGE('',*,*,#303,.F.);
#1753 = CYLINDRICAL_SURFACE('',#1754,0.999999252925);
#1754 = AXIS2_PLACEMENT_3D('',#1755,#1756,#1757);
#1755 = CARTESIAN_POINT('',(-66.86300074707,8.500000747075,0.));
#1756 = DIRECTION('',(0.,0.,-1.));
#1757 = DIRECTION('',(-1.,-7.470757314012E-07,-0.));
#1758 = ADVANCED_FACE('',(#1759),#1770,.T.);
#1759 = FACE_BOUND('',#1760,.T.);
#1760 = EDGE_LOOP('',(#1761,#1762,#1763,#1769));
#1761 = ORIENTED_EDGE('',*,*,#1730,.T.);
#1762 = ORIENTED_EDGE('',*,*,#815,.T.);
#1763 = ORIENTED_EDGE('',*,*,#1764,.F.);
#1764 = EDGE_CURVE('',#329,#807,#1765,.T.);
#1765 = LINE('',#1766,#1767);
#1766 = CARTESIAN_POINT('',(-68.163,5.8,0.));
#1767 = VECTOR('',#1768,1.);
#1768 = DIRECTION('',(0.,0.,1.));
#1769 = ORIENTED_EDGE('',*,*,#337,.F.);
#1770 = PLANE('',#1771);
#1771 = AXIS2_PLACEMENT_3D('',#1772,#1773,#1774);
#1772 = CARTESIAN_POINT('',(-71.863,5.8,0.));
#1773 = DIRECTION('',(0.,1.,0.));
#1774 = DIRECTION('',(1.,0.,0.));
#1775 = ADVANCED_FACE('',(#1776),#1787,.T.);
#1776 = FACE_BOUND('',#1777,.T.);
#1777 = EDGE_LOOP('',(#1778,#1784,#1785,#1786));
#1778 = ORIENTED_EDGE('',*,*,#1779,.T.);
#1779 = EDGE_CURVE('',#313,#791,#1780,.T.);
#1780 = LINE('',#1781,#1782);
#1781 = CARTESIAN_POINT('',(-67.863,6.8,0.));
#1782 = VECTOR('',#1783,1.);
#1783 = DIRECTION('',(0.,0.,1.));
#1784 = ORIENTED_EDGE('',*,*,#790,.T.);
#1785 = ORIENTED_EDGE('',*,*,#1745,.F.);
#1786 = ORIENTED_EDGE('',*,*,#312,.F.);
#1787 = PLANE('',#1788);
#1788 = AXIS2_PLACEMENT_3D('',#1789,#1790,#1791);
#1789 = CARTESIAN_POINT('',(-67.863,6.8,0.));
#1790 = DIRECTION('',(-1.,0.,0.));
#1791 = DIRECTION('',(0.,1.,0.));
#1792 = ADVANCED_FACE('',(#1793),#1804,.F.);
#1793 = FACE_BOUND('',#1794,.T.);
#1794 = EDGE_LOOP('',(#1795,#1796,#1797,#1803));
#1795 = ORIENTED_EDGE('',*,*,#1764,.T.);
#1796 = ORIENTED_EDGE('',*,*,#806,.T.);
#1797 = ORIENTED_EDGE('',*,*,#1798,.F.);
#1798 = EDGE_CURVE('',#321,#799,#1799,.T.);
#1799 = LINE('',#1800,#1801);
#1800 = CARTESIAN_POINT('',(-67.863,6.1,0.));
#1801 = VECTOR('',#1802,1.);
#1802 = DIRECTION('',(0.,0.,1.));
#1803 = ORIENTED_EDGE('',*,*,#328,.F.);
#1804 = CYLINDRICAL_SURFACE('',#1805,0.300000117299);
#1805 = AXIS2_PLACEMENT_3D('',#1806,#1807,#1808);
#1806 = CARTESIAN_POINT('',(-68.16300011729,6.100000117299,0.));
#1807 = DIRECTION('',(-0.,-0.,-1.));
#1808 = DIRECTION('',(3.909953616065E-07,-1.,0.));
#1809 = ADVANCED_FACE('',(#1810),#1816,.T.);
#1810 = FACE_BOUND('',#1811,.T.);
#1811 = EDGE_LOOP('',(#1812,#1813,#1814,#1815));
#1812 = ORIENTED_EDGE('',*,*,#1798,.T.);
#1813 = ORIENTED_EDGE('',*,*,#798,.T.);
#1814 = ORIENTED_EDGE('',*,*,#1779,.F.);
#1815 = ORIENTED_EDGE('',*,*,#320,.F.);
#1816 = PLANE('',#1817);
#1817 = AXIS2_PLACEMENT_3D('',#1818,#1819,#1820);
#1818 = CARTESIAN_POINT('',(-67.863,6.1,0.));
#1819 = DIRECTION('',(-1.,0.,0.));
#1820 = DIRECTION('',(0.,1.,0.));
#1821 = ADVANCED_FACE('',(#1822),#1833,.F.);
#1822 = FACE_BOUND('',#1823,.T.);
#1823 = EDGE_LOOP('',(#1824,#1825,#1831,#1832));
#1824 = ORIENTED_EDGE('',*,*,#505,.T.);
#1825 = ORIENTED_EDGE('',*,*,#1826,.T.);
#1826 = EDGE_CURVE('',#506,#984,#1827,.T.);
#1827 = LINE('',#1828,#1829);
#1828 = CARTESIAN_POINT('',(51.802,-1.71245,-4.6E-02));
#1829 = VECTOR('',#1830,1.);
#1830 = DIRECTION('',(0.,0.,1.));
#1831 = ORIENTED_EDGE('',*,*,#983,.F.);
#1832 = ORIENTED_EDGE('',*,*,#1826,.F.);
#1833 = CYLINDRICAL_SURFACE('',#1834,1.18745);
#1834 = AXIS2_PLACEMENT_3D('',#1835,#1836,#1837);
#1835 = CARTESIAN_POINT('',(51.802,-0.525,-4.6E-02));
#1836 = DIRECTION('',(-0.,-0.,-1.));
#1837 = DIRECTION('',(-0.,-1.,0.));
#1838 = ADVANCED_FACE('',(#1839),#1850,.F.);
#1839 = FACE_BOUND('',#1840,.T.);
#1840 = EDGE_LOOP('',(#1841,#1842,#1848,#1849));
#1841 = ORIENTED_EDGE('',*,*,#516,.T.);
#1842 = ORIENTED_EDGE('',*,*,#1843,.T.);
#1843 = EDGE_CURVE('',#517,#995,#1844,.T.);
#1844 = LINE('',#1845,#1846);
#1845 = CARTESIAN_POINT('',(57.517,-1.71245,-4.6E-02));
#1846 = VECTOR('',#1847,1.);
#1847 = DIRECTION('',(0.,0.,1.));
#1848 = ORIENTED_EDGE('',*,*,#994,.F.);
#1849 = ORIENTED_EDGE('',*,*,#1843,.F.);
#1850 = CYLINDRICAL_SURFACE('',#1851,1.18745);
#1851 = AXIS2_PLACEMENT_3D('',#1852,#1853,#1854);
#1852 = CARTESIAN_POINT('',(57.517,-0.525,-4.6E-02));
#1853 = DIRECTION('',(-0.,0.,-1.));
#1854 = DIRECTION('',(5.983769723021E-15,-1.,-0.));
#1855 = ADVANCED_FACE('',(#1856),#1867,.F.);
#1856 = FACE_BOUND('',#1857,.T.);
#1857 = EDGE_LOOP('',(#1858,#1864,#1865,#1866));
#1858 = ORIENTED_EDGE('',*,*,#1859,.T.);
#1859 = EDGE_CURVE('',#528,#1006,#1860,.T.);
#1860 = LINE('',#1861,#1862);
#1861 = CARTESIAN_POINT('',(69.137,-33.,0.));
#1862 = VECTOR('',#1863,1.);
#1863 = DIRECTION('',(0.,0.,1.));
#1864 = ORIENTED_EDGE('',*,*,#1005,.T.);
#1865 = ORIENTED_EDGE('',*,*,#1859,.F.);
#1866 = ORIENTED_EDGE('',*,*,#527,.F.);
#1867 = CYLINDRICAL_SURFACE('',#1868,1.);
#1868 = AXIS2_PLACEMENT_3D('',#1869,#1870,#1871);
#1869 = CARTESIAN_POINT('',(68.137,-33.,0.));
#1870 = DIRECTION('',(-0.,-0.,-1.));
#1871 = DIRECTION('',(1.,0.,-0.));
#1872 = ADVANCED_FACE('',(#1873),#1884,.F.);
#1873 = FACE_BOUND('',#1874,.T.);
#1874 = EDGE_LOOP('',(#1875,#1876,#1882,#1883));
#1875 = ORIENTED_EDGE('',*,*,#538,.T.);
#1876 = ORIENTED_EDGE('',*,*,#1877,.T.);
#1877 = EDGE_CURVE('',#539,#1017,#1878,.T.);
#1878 = LINE('',#1879,#1880);
#1879 = CARTESIAN_POINT('',(49.897,0.5037,-4.6E-02));
#1880 = VECTOR('',#1881,1.);
#1881 = DIRECTION('',(0.,0.,1.));
#1882 = ORIENTED_EDGE('',*,*,#1016,.F.);
#1883 = ORIENTED_EDGE('',*,*,#1877,.F.);
#1884 = CYLINDRICAL_SURFACE('',#1885,0.4953);
#1885 = AXIS2_PLACEMENT_3D('',#1886,#1887,#1888);
#1886 = CARTESIAN_POINT('',(49.897,0.999,-4.6E-02));
#1887 = DIRECTION('',(-0.,-0.,-1.));
#1888 = DIRECTION('',(-0.,-1.,0.));
#1889 = ADVANCED_FACE('',(#1890),#1901,.F.);
#1890 = FACE_BOUND('',#1891,.T.);
#1891 = EDGE_LOOP('',(#1892,#1893,#1899,#1900));
#1892 = ORIENTED_EDGE('',*,*,#549,.T.);
#1893 = ORIENTED_EDGE('',*,*,#1894,.T.);
#1894 = EDGE_CURVE('',#550,#1028,#1895,.T.);
#1895 = LINE('',#1896,#1897);
#1896 = CARTESIAN_POINT('',(49.897,2.5357,-4.6E-02));
#1897 = VECTOR('',#1898,1.);
#1898 = DIRECTION('',(0.,0.,1.));
#1899 = ORIENTED_EDGE('',*,*,#1027,.F.);
#1900 = ORIENTED_EDGE('',*,*,#1894,.F.);
#1901 = CYLINDRICAL_SURFACE('',#1902,0.4953);
#1902 = AXIS2_PLACEMENT_3D('',#1903,#1904,#1905);
#1903 = CARTESIAN_POINT('',(49.897,3.031,-4.6E-02));
#1904 = DIRECTION('',(-0.,-0.,-1.));
#1905 = DIRECTION('',(-0.,-1.,0.));
#1906 = ADVANCED_FACE('',(#1907),#1918,.F.);
#1907 = FACE_BOUND('',#1908,.T.);
#1908 = EDGE_LOOP('',(#1909,#1910,#1916,#1917));
#1909 = ORIENTED_EDGE('',*,*,#560,.T.);
#1910 = ORIENTED_EDGE('',*,*,#1911,.T.);
#1911 = EDGE_CURVE('',#561,#1039,#1912,.T.);
#1912 = LINE('',#1913,#1914);
#1913 = CARTESIAN_POINT('',(51.802,3.36755,-4.6E-02));
#1914 = VECTOR('',#1915,1.);
#1915 = DIRECTION('',(0.,0.,1.));
#1916 = ORIENTED_EDGE('',*,*,#1038,.F.);
#1917 = ORIENTED_EDGE('',*,*,#1911,.F.);
#1918 = CYLINDRICAL_SURFACE('',#1919,1.18745);
#1919 = AXIS2_PLACEMENT_3D('',#1920,#1921,#1922);
#1920 = CARTESIAN_POINT('',(51.802,4.555,-4.6E-02));
#1921 = DIRECTION('',(-0.,-0.,-1.));
#1922 = DIRECTION('',(-0.,-1.,0.));
#1923 = ADVANCED_FACE('',(#1924),#1935,.F.);
#1924 = FACE_BOUND('',#1925,.T.);
#1925 = EDGE_LOOP('',(#1926,#1927,#1933,#1934));
#1926 = ORIENTED_EDGE('',*,*,#571,.T.);
#1927 = ORIENTED_EDGE('',*,*,#1928,.T.);
#1928 = EDGE_CURVE('',#572,#1050,#1929,.T.);
#1929 = LINE('',#1930,#1931);
#1930 = CARTESIAN_POINT('',(57.517,1.5197,-4.6E-02));
#1931 = VECTOR('',#1932,1.);
#1932 = DIRECTION('',(0.,0.,1.));
#1933 = ORIENTED_EDGE('',*,*,#1049,.F.);
#1934 = ORIENTED_EDGE('',*,*,#1928,.F.);
#1935 = CYLINDRICAL_SURFACE('',#1936,0.4953);
#1936 = AXIS2_PLACEMENT_3D('',#1937,#1938,#1939);
#1937 = CARTESIAN_POINT('',(57.517,2.015,-4.6E-02));
#1938 = DIRECTION('',(-0.,-0.,-1.));
#1939 = DIRECTION('',(-0.,-1.,0.));
#1940 = ADVANCED_FACE('',(#1941),#1952,.F.);
#1941 = FACE_BOUND('',#1942,.T.);
#1942 = EDGE_LOOP('',(#1943,#1944,#1950,#1951));
#1943 = ORIENTED_EDGE('',*,*,#582,.T.);
#1944 = ORIENTED_EDGE('',*,*,#1945,.T.);
#1945 = EDGE_CURVE('',#583,#1061,#1946,.T.);
#1946 = LINE('',#1947,#1948);
#1947 = CARTESIAN_POINT('',(57.517,3.36755,-4.6E-02));
#1948 = VECTOR('',#1949,1.);
#1949 = DIRECTION('',(0.,0.,1.));
#1950 = ORIENTED_EDGE('',*,*,#1060,.F.);
#1951 = ORIENTED_EDGE('',*,*,#1945,.F.);
#1952 = CYLINDRICAL_SURFACE('',#1953,1.18745);
#1953 = AXIS2_PLACEMENT_3D('',#1954,#1955,#1956);
#1954 = CARTESIAN_POINT('',(57.517,4.555,-4.6E-02));
#1955 = DIRECTION('',(-0.,0.,-1.));
#1956 = DIRECTION('',(5.983769723021E-15,-1.,-0.));
#1957 = ADVANCED_FACE('',(#1958),#1969,.F.);
#1958 = FACE_BOUND('',#1959,.T.);
#1959 = EDGE_LOOP('',(#1960,#1966,#1967,#1968));
#1960 = ORIENTED_EDGE('',*,*,#1961,.T.);
#1961 = EDGE_CURVE('',#594,#1072,#1962,.T.);
#1962 = LINE('',#1963,#1964);
#1963 = CARTESIAN_POINT('',(69.137,0.,0.));
#1964 = VECTOR('',#1965,1.);
#1965 = DIRECTION('',(0.,0.,1.));
#1966 = ORIENTED_EDGE('',*,*,#1071,.T.);
#1967 = ORIENTED_EDGE('',*,*,#1961,.F.);
#1968 = ORIENTED_EDGE('',*,*,#593,.F.);
#1969 = CYLINDRICAL_SURFACE('',#1970,1.);
#1970 = AXIS2_PLACEMENT_3D('',#1971,#1972,#1973);
#1971 = CARTESIAN_POINT('',(68.137,-0.,0.));
#1972 = DIRECTION('',(-0.,-0.,-1.));
#1973 = DIRECTION('',(1.,0.,-0.));
#1974 = ADVANCED_FACE('',(#1975),#1986,.F.);
#1975 = FACE_BOUND('',#1976,.T.);
#1976 = EDGE_LOOP('',(#1977,#1983,#1984,#1985));
#1977 = ORIENTED_EDGE('',*,*,#1978,.T.);
#1978 = EDGE_CURVE('',#605,#1083,#1979,.T.);
#1979 = LINE('',#1980,#1981);
#1980 = CARTESIAN_POINT('',(69.137,33.,0.));
#1981 = VECTOR('',#1982,1.);
#1982 = DIRECTION('',(0.,0.,1.));
#1983 = ORIENTED_EDGE('',*,*,#1082,.T.);
#1984 = ORIENTED_EDGE('',*,*,#1978,.F.);
#1985 = ORIENTED_EDGE('',*,*,#604,.F.);
#1986 = CYLINDRICAL_SURFACE('',#1987,1.);
#1987 = AXIS2_PLACEMENT_3D('',#1988,#1989,#1990);
#1988 = CARTESIAN_POINT('',(68.137,33.,0.));
#1989 = DIRECTION('',(-0.,-0.,-1.));
#1990 = DIRECTION('',(1.,0.,-0.));
#1991 = ( GEOMETRIC_REPRESENTATION_CONTEXT(3) 
GLOBAL_UNCERTAINTY_ASSIGNED_CONTEXT((#1995)) 
GLOBAL_UNIT_ASSIGNED_CONTEXT((#1992,#1993,#1994)) REPRESENTATION_CONTEXT
('Context #1','3D Context with UNIT and UNCERTAINTY') );
#1992 = ( LENGTH_UNIT() NAMED_UNIT(*) SI_UNIT(.MILLI.,.METRE.) );
#1993 = ( NAMED_UNIT(*) PLANE_ANGLE_UNIT() SI_UNIT($,.RADIAN.) );
#1994 = ( NAMED_UNIT(*) SI_UNIT($,.STERADIAN.) SOLID_ANGLE_UNIT() );
#1995 = UNCERTAINTY_MEASURE_WITH_UNIT(LENGTH_MEASURE(1.E-07),#1992,
  'distance_accuracy_value','confusion accuracy');
#1996 = CONTEXT_DEPENDENT_SHAPE_REPRESENTATION(#1997,#1999);
#1997 = ( REPRESENTATION_RELATIONSHIP('','',#32,#10) 
REPRESENTATION_RELATIONSHIP_WITH_TRANSFORMATION(#1998) 
SHAPE_REPRESENTATION_RELATIONSHIP() );
#1998 = ITEM_DEFINED_TRANSFORMATION('','',#11,#15);
#1999 = PRODUCT_DEFINITION_SHAPE('Placement','Placement of an item',
  #2000);
#2000 = NEXT_ASSEMBLY_USAGE_OCCURRENCE('1','=>[0:1:1:2]','',#5,#27,$);
#2001 = PRODUCT_RELATED_PRODUCT_CATEGORY('part',$,(#29));
#2002 = MECHANICAL_DESIGN_GEOMETRIC_PRESENTATION_REPRESENTATION('',(
    #2003),#1991);
#2003 = STYLED_ITEM('color',(#2004),#33);
#2004 = PRESENTATION_STYLE_ASSIGNMENT((#2005));
#2005 = SURFACE_STYLE_USAGE(.BOTH.,#2006);
#2006 = SURFACE_SIDE_STYLE('',(#2007));
#2007 = SURFACE_STYLE_FILL_AREA(#2008);
#2008 = FILL_AREA_STYLE('',(#2009));
#2009 = FILL_AREA_STYLE_COLOUR('',#2010);
#2010 = COLOUR_RGB('',0.313304153717,0.484529207832,0.410020903123);
ENDSEC;
END-ISO-10303-21;
